<?xml version="1.0" encoding="UTF-8" standalone="no"?><!DOCTYPE svg PUBLIC "-//W3C//DTD SVG 1.1//EN" "http://www.w3.org/Graphics/SVG/1.1/DTD/svg11.dtd"><svg width="100%" height="100%" viewBox="0 0 1000 200" version="1.1" xmlns="http://www.w3.org/2000/svg" xmlns:xlink="http://www.w3.org/1999/xlink" xml:space="preserve" xmlns:serif="http://www.serif.com/" style="fill-rule:evenodd;clip-rule:evenodd;stroke-linecap:round;stroke-linejoin:round;stroke-miterlimit:1.5;"><path d="M154.249,87.423c0,-0.602 0.183,-1.177 0.183,-1.808l0,-0.682c0,-0.105 -0.074,-0.389 0,-0.314c0.264,0.264 1.018,-0.341 1.416,-0.341c0.831,0 1.658,0.026 2.49,0.026c0.196,0 0.76,0.027 0.892,-0.105c0.474,-0.475 1.235,-0.658 1.756,-1.075c0.324,-0.259 0.981,-0.157 1.389,-0.157c0.052,0 0.456,0.031 0.472,0c0.141,-0.282 0.538,-0.262 0.865,-0.262c0.043,0 0.38,0.026 0.393,0c0.408,-0.815 1.631,-1.119 2.465,-1.258c0.109,-0.019 0.666,-0.037 0.734,-0.105c0.463,-0.464 1.146,-1.038 1.52,-1.599c0.099,-0.149 0.406,-0.734 0.577,-0.734c0.086,0 0.164,0.152 0.236,0.105c0.949,-0.634 1.211,-1.274 1.887,-2.176c0.357,-0.477 0.984,-0.774 1.363,-1.154c0.157,-0.157 0.285,-0.449 0.367,-0.655c0.138,-0.344 0.618,-0.554 0.76,-0.839c0.265,-0.53 1.007,-0.954 1.311,-1.258c0.552,-0.552 0.77,-1.409 1.049,-1.966c0.133,-0.266 0.629,-0.663 0.629,-0.892c0,-0.096 0,0.193 0,0.289c0,0.162 0.025,0.371 -0.026,0.524c-0.084,0.252 -0.199,0.959 -0.341,1.101c-0.043,0.043 0.014,0.248 -0.026,0.288c-0.702,0.702 -0.42,2.482 -0.42,3.618c0,0.082 -0.272,0.33 -0.367,0.472c-0.074,0.112 -0.088,0.338 -0.209,0.419c-0.299,0.199 -0.331,0.739 -0.499,1.075c-0.024,0.049 -0.017,0.332 -0.052,0.367c-0.234,0.234 -0.237,0.604 -0.446,0.918c-0.357,0.536 -0.668,1.172 -1.022,1.704c-0.209,0.313 -0.499,0.578 -0.734,0.812c-0.291,0.291 -0.452,0.902 -0.655,1.206c-0.239,0.358 -0.688,0.708 -0.918,0.944c-0.601,0.615 -1.39,0.97 -1.992,1.573c-0.206,0.206 -0.451,0.414 -0.629,0.681c-0.148,0.222 -0.02,0.387 -0.21,0.577c-0.149,0.149 -0.328,0.297 -0.551,0.446c-0.022,0.014 -0.197,-0.025 -0.209,0c-0.132,0.263 -0.509,0.479 -0.813,0.707c-0.181,0.136 -0.603,0.001 -0.813,0.105c-0.145,0.073 -0.349,0.463 -0.629,0.629c-0.873,0.521 -1.75,0.776 -2.647,1.075c-0.812,0.271 -2.024,0.162 -2.622,0.76c-0.222,0.223 -0.903,-0.098 -1.206,0.053c-0.324,0.162 -0.6,0.405 -0.891,0.55c-0.32,0.161 -0.971,-0.165 -1.258,0.027c-0.175,0.116 -0.495,0.289 -0.813,0.183c-0.212,-0.071 -0.174,-0.264 -0.288,-0.341c-0.309,-0.205 -0.737,-0.436 -0.813,-0.97c-0.018,-0.125 0.07,-0.445 0,-0.55c-0.089,-0.133 -0.177,-0.233 -0.288,-0.289c-0.049,-0.024 0,-0.534 0,-0.629c0,-0.687 0.026,-1.364 0.026,-2.044c0,-0.155 -0.091,-0.879 0,-0.97c0.109,-0.109 0.315,-0.823 0.315,-0.997c0,-0.099 -0.042,0.381 -0.079,0.289c-0.194,-0.48 0.114,-1.052 0.498,-1.18c0.587,-0.195 1.365,0.158 1.835,0.315c0.928,0.309 2.017,-0.21 2.884,-0.21" style="fill:#8b8b8b;stroke:#8b8b8b;stroke-width:0.01px;"/><path d="M154.563,87.843c0,-0.563 -0.217,-1.793 0.027,-2.281c0.17,-0.34 0.378,-0.646 0.576,-0.943c0.093,-0.14 0.313,-0.008 0.42,-0.079c0.459,-0.306 0.619,-0.286 1.153,-0.42c0.654,-0.163 1.268,-0.55 2.045,-0.55c0.124,0 0.67,-0.07 0.734,0.026c0.113,0.17 0.188,0.382 0.262,0.603c0.572,1.716 -1.881,1.927 -2.884,2.595c-0.578,0.386 -1.331,1.209 -2.175,0.787c-0.052,-0.026 0.03,-0.385 0,-0.446c-0.063,-0.124 -0.18,0.004 -0.263,-0.079c-0.107,-0.107 0,-0.854 0,-1.022" style="fill:#898686;stroke:#8b8b8b;stroke-width:0.01px;"/><path d="M128.8,81.941l0,-3.932c0,-0.045 -0.066,0.111 -0.026,0.131c0.151,0.075 0.312,0.127 0.471,0.183c0.216,0.076 0.583,0 0.813,0c0.654,0 1.165,0.184 1.861,0.184c0.279,0 0.646,-0.063 0.813,0.104c0.044,0.045 0.249,-0.016 0.315,0c0.148,0.038 0.581,0.231 0.707,0.315c0.264,0.176 0.854,-0.041 1.154,0.079c0.274,0.109 0.618,0.119 0.891,0.209c0.051,0.017 0.426,-0.039 0.446,0c0.074,0.149 0.342,0.237 0.498,0.315c0.184,0.092 0.497,-0.028 0.603,0.184c0.015,0.029 0.396,0 0.445,0c0.153,0 0.388,0.145 0.446,0.262c0.099,0.199 0.588,-0.042 0.708,0.078c0.201,0.202 -0.117,0.746 -0.236,0.865c-0.614,0.615 -1.265,1.01 -1.652,1.783c-0.086,0.173 0,0.615 0,0.813c0,0.584 -0.072,1.121 -0.183,1.677c-0.111,0.557 -0.337,1.093 -0.577,1.573c-0.056,0.112 0.09,0.473 -0.026,0.551c-0.229,0.152 -0.5,0.319 -0.603,0.524c-0.05,0.1 -0.301,0.033 -0.393,0.079c-0.223,0.111 -0.987,0.549 -1.127,0.76c-0.094,0.14 -0.285,0.494 -0.394,0.603c-0.099,0.099 -1.313,0.051 -1.468,0c-0.237,-0.079 -0.278,-0.348 -0.367,-0.525c-0.089,-0.179 -0.627,-0.72 -0.812,-0.812c-0.101,-0.05 -0.024,-0.441 -0.079,-0.551c-0.144,-0.289 -0.183,-0.707 -0.341,-1.022c-0.043,-0.087 -0.319,-0.136 -0.393,-0.21c-0.128,-0.128 -0.249,-0.347 -0.446,-0.445c-0.557,-0.279 -1.468,-0.171 -1.966,-0.42c-0.019,-0.01 0,-0.33 0,-0.367l0,-0.996c0,-0.79 0.357,-1.668 0.787,-2.097c0.04,-0.041 0,-0.329 0,-0.393c0,-0.326 0.236,-1.08 0.236,-0.734" style="fill:#8c8b8b;stroke:#8a8a8a;stroke-width:0.01px;"/><path d="M146.703,68.046c0,-0.248 0.371,-0.671 0.484,-0.891c0.041,-0.08 0.085,-0.92 0.134,-0.944c0.145,-0.07 0.386,-0.465 0.484,-0.655c0.059,-0.115 0.052,-0.549 0.134,-0.629c0.421,-0.41 0.504,-1.143 0.887,-1.704c0.038,-0.055 -0.049,-0.267 0,-0.315c0.272,-0.265 0.487,-1.009 0.591,-1.415c0.17,-0.662 0.858,-1.333 1.237,-1.888c0.05,-0.073 0.062,-0.61 0.107,-0.786c0.314,-1.223 -0.095,-2.888 0.619,-3.932c0.119,-0.174 0.288,-1.032 0.376,-1.075c0.048,-0.024 0.247,-0.22 0.269,-0.262c0.028,-0.055 0,-0.245 0,-0.184c0,0.495 1.265,0.291 1.478,0.603c0.169,0.248 0.058,0.993 0.188,1.311c0.067,0.162 0.435,0.776 0.511,0.813c0.169,0.082 0.411,0.173 0.51,0.367c0.186,0.362 0.498,0.931 0.834,1.258c0.179,0.175 -0.179,0.874 0,1.049c0.4,0.39 0.473,0.66 0.725,1.153c0.185,0.36 0.459,0.424 0.592,0.813c0.243,0.713 -0.342,1.849 0,2.516c0.046,0.09 -0.004,0.442 0.054,0.498c0.488,0.477 0.376,1.623 0.376,2.307l0,1.809c0,0.18 0.07,0.591 -0.027,0.734c-0.136,0.198 -0.387,0.403 -0.511,0.524c-0.104,0.102 0.038,0.611 0,0.76c-0.052,0.203 -0.299,0.686 -0.51,0.892c-0.448,0.436 -1.713,-0.048 -2.178,-0.184c-1.247,-0.365 -2.312,-0.839 -3.521,-1.363c-0.065,-0.028 -0.457,0.052 -0.483,0c-0.037,-0.072 -0.397,-0.156 -0.511,-0.183c-0.299,-0.073 -0.58,-0.224 -0.86,-0.315c-0.221,-0.072 -0.573,0.101 -0.78,0c-0.2,-0.098 -0.485,-0.553 -0.564,-0.708c-0.198,-0.386 -0.163,-1.399 0.027,-1.861c0.137,-0.334 -0.049,-0.791 0.188,-1.022c0.076,-0.075 -0.076,-0.372 0,-0.446c0.25,-0.244 0.492,-0.786 0.672,-1.049c0.208,-0.304 0.337,-0.716 0.564,-1.048c0.037,-0.054 0,-0.752 0,-0.341" style="fill:#8b8b8b;stroke:#8c8b8b;stroke-width:0.01px;"/><path d="M146.374,104.328c0,-0.095 0.061,-0.543 0,-0.603c-0.138,-0.136 -0.361,-0.056 -0.453,-0.236c-0.215,-0.425 -0.273,-0.915 -0.558,-1.337c-0.333,-0.492 -1.042,-1.105 -1.464,-1.52c-0.232,-0.229 -0.333,-0.781 -0.532,-1.075c-0.075,-0.112 0,-0.543 0,-0.682c0,-0.67 -0.135,-1.48 0.426,-1.756c0.075,-0.037 0.002,-0.631 0.08,-0.708c0.198,-0.195 0.425,-0.497 0.638,-0.708c0.057,-0.056 0,-0.463 0,-0.55c0,-0.649 -0.273,-1.115 -0.505,-1.573c-0.049,-0.096 -0.34,-0.166 -0.373,-0.262c-0.136,-0.402 -0.616,-0.414 -0.905,-0.603c-0.434,-0.286 -0.952,-0.574 -1.383,-0.787c-0.141,-0.069 -0.171,-0.232 -0.24,-0.367c-0.115,-0.227 -0.702,-0.277 -0.851,-0.498c-0.14,-0.206 -0.542,-0.673 -0.772,-0.786c-0.001,-0.001 -0.116,-0.421 -0.133,-0.446c-0.073,-0.108 -0.236,-0.206 -0.346,-0.314c-0.084,-0.084 0.042,-0.3 -0.026,-0.367c-0.21,-0.206 -0.107,-0.821 -0.107,-1.154c0,-0.141 0.093,-0.826 0,-0.917c-0.216,-0.214 -0.438,0.556 -0.106,0.393c0.029,-0.014 0,-0.358 0,-0.393c0,-0.367 -0.09,-0.828 0,-1.18c0.086,-0.339 0.319,-0.878 0.505,-1.153c0.103,-0.152 -0.102,-0.504 0,-0.656c0.265,-0.391 0.732,-1.022 0.958,-1.468c0.089,-0.174 -0.073,-0.474 0,-0.655c0.097,-0.238 0.138,-0.589 0.24,-0.839c0.215,-0.53 0.48,-0.736 0.745,-1.258c0.071,-0.14 -0.087,-0.422 0,-0.551c0.157,-0.233 0.291,-0.487 0.479,-0.734c0.232,-0.305 0.373,-0.84 0.612,-1.075c0.218,-0.215 0.534,-0.528 0.638,-0.734c0.119,-0.234 0.164,-0.605 0.426,-0.734c0.027,-0.013 0.165,-0.776 0.186,-0.838c0.202,-0.596 0.626,-1.41 0.985,-1.94c0.274,-0.405 0.175,-1.125 0.426,-1.494c0.477,-0.706 0.902,-1.609 1.41,-2.36c0.046,-0.068 -0.027,-0.234 0,-0.314c0.095,-0.282 0.329,-0.51 0.399,-0.787c0.028,-0.111 -0.072,-0.384 0.053,-0.445c0.429,-0.211 1.687,-0.677 2.315,-0.367c0.77,0.379 1.395,0.661 2.129,1.022c0.456,0.225 1.313,-0.122 1.809,0c0.421,0.104 0.911,0.095 1.304,0.288c0.432,0.213 0.837,0.609 1.144,0.761c0.155,0.076 0.612,0.183 0.745,0.314c0.073,0.072 0.005,0.642 -0.027,0.734c-0.078,0.231 -0.109,0.568 -0.239,0.76c-0.043,0.063 0.053,0.262 0,0.315c-0.191,0.188 -0.374,0.529 -0.452,0.839c-0.132,0.52 0.075,1.618 -0.213,2.044c-0.162,0.24 -0.435,0.428 -0.639,0.63c-0.155,0.152 -0.109,0.398 -0.213,0.55c-0.421,0.623 -0.9,1.162 -1.437,1.992c-0.49,0.759 -1.011,1.367 -1.011,2.255c0,1.112 -0.139,2.399 0.293,3.25c0.14,0.275 -0.027,0.929 -0.027,1.233l0,3.067c0,1.198 -0.197,2.188 0.213,3.198c0.094,0.23 0.07,0.587 0.187,0.76c0.057,0.085 -0.04,0.27 0,0.367c0.187,0.462 0.186,1.069 0.186,1.573c0,0.183 -0.08,0.602 0,0.76c0.284,0.561 0.508,1.252 0.745,1.835c0.326,0.803 -0.214,1.989 0,2.831c0.075,0.295 0.312,1.006 0.559,1.127c0.026,0.014 0,0.351 0,0.394c0,0.38 0.093,0.891 0,1.258c-0.064,0.249 -0.181,0.699 -0.346,0.944c-0.061,0.09 0.076,0.37 0,0.445c-0.053,0.053 -0.447,0 -0.532,0c-0.388,0 -1.258,-0.167 -1.597,0c-0.153,0.076 -0.202,0.36 -0.372,0.472c-0.135,0.089 -0.561,-0.077 -0.666,0.026c-0.19,0.188 -0.574,0.352 -0.878,0.551c-0.407,0.268 -1.454,-0.12 -1.942,0c-0.266,0.065 -0.345,0.458 -0.586,0.577c-0.136,0.067 -0.482,0 -0.638,0c-0.064,0 -0.358,0.04 -0.399,0c-0.302,-0.298 0.041,-0.785 -0.16,-1.18c-0.035,-0.069 -0.36,-0.093 -0.452,-0.184" style="fill:#8a8a8a;stroke:#808080;stroke-width:0.01px;"/><path d="M133.776,152.364c0,0.615 0.174,0.947 0.51,1.283c0.045,0.045 0.009,0.269 0.049,0.329c0.079,0.118 0.143,0.214 0.23,0.345c0.107,0.161 -0.062,0.537 0,0.724c0.033,0.099 0.155,0.324 0.231,0.362c0.056,0.028 -0.059,0.341 0.016,0.378c0.14,0.07 0.366,0.558 0.477,0.724c0.058,0.087 0.1,0.363 0.148,0.411c0.049,0.05 0.176,0.319 0.198,0.329c0.097,0.049 0.432,0.257 0.477,0.346c0.101,0.203 0.404,0.638 0.608,0.74c0.188,0.094 0.668,0 0.889,0c0.083,0 0.473,0.053 0.526,0c0.039,-0.039 0,-0.354 0,-0.411c0,-0.208 -0.015,-0.524 -0.115,-0.675c-0.152,-0.228 -0.42,-0.296 -0.543,-0.542c-0.123,-0.247 -0.197,-0.671 -0.197,-0.954c0,-0.232 0.039,-0.602 -0.116,-0.757c-0.155,-0.155 -0.034,-0.849 -0.279,-0.543c-0.034,0.043 0,-0.11 0,-0.164l0,-0.28c0,-0.325 -0.026,-0.68 0.066,-0.954c0.026,-0.08 -0.057,-0.339 0,-0.395c0.271,-0.272 0.154,-0.766 0.23,-1.184c0.142,-0.779 0.603,-1.486 0.263,-2.336c-0.042,-0.104 0.074,-0.387 0,-0.461c-0.017,-0.017 -0.102,0.02 -0.115,0c-0.136,-0.203 0.296,-0.757 0.362,-0.888c0.202,-0.403 -0.202,-1.11 0,-1.513c0.07,-0.141 0.204,-0.244 0.263,-0.362c0.217,-0.433 0.292,-1.041 0.543,-1.48c0.197,-0.345 0.129,-0.646 0.247,-0.971c0.178,-0.491 0.501,-1.307 0.312,-1.875c-0.207,-0.621 -0.861,-0.346 -1.316,-0.165c-0.064,0.026 -0.169,-0.03 -0.23,0c-0.198,0.099 -0.163,0.426 -0.28,0.658c-0.277,0.555 -0.746,1.024 -1.036,1.662c-0.557,1.225 -0.969,2.524 -1.135,3.964c-0.02,0.176 0.11,0.756 0,0.921c-0.233,0.349 -0.262,1.163 -0.345,1.579c-0.044,0.216 0.032,0.601 -0.083,0.773c-0.121,0.182 -0.336,0.324 -0.493,0.56c-0.109,0.163 0.055,0.501 -0.05,0.658c-0.163,0.245 -0.329,0.156 -0.329,0.526" style="fill:#f00;stroke:#f00;stroke-width:0.01px;"/><path d="M140.488,126.467c-0.451,0.45 -0.586,1.294 -0.707,1.96c-0.076,0.414 -0.464,0.92 -0.707,1.285c-0.655,0.983 -1.093,2.346 -1.606,3.373c-0.169,0.338 -0.844,1.505 -0.707,1.414c0.002,-0.002 -0.06,0.398 -0.064,0.417c-0.006,0.022 -0.178,0.619 -0.225,0.643c-0.291,0.145 -0.611,1.414 -0.611,1.767c0,1.055 -0.064,2.166 -0.064,3.245c0,0.544 -0.189,1.209 -0.096,1.67c0.044,0.224 0.399,0.768 0.514,0.996c0.137,0.274 0.228,0.805 0.514,0.9c0.211,0.07 0.86,1.071 1.317,0.386c0.058,-0.088 -0.026,-0.313 0,-0.418c0.129,-0.518 0.134,-1.2 0.385,-1.703c0.06,-0.119 -0.059,-0.455 0.033,-0.546c0.623,-0.623 0.146,-1.955 0.353,-2.988c0.433,-2.166 0.581,-4.18 1.799,-6.008c0.347,-0.52 -0.02,-1.265 0.386,-1.67c0.415,-0.416 0.024,-1.045 0.257,-1.51c0.289,-0.58 0.673,-0.929 0.899,-1.382c0.083,-0.165 -0.118,-0.99 -0.193,-1.028c-0.663,-0.331 -1.2,0.365 -1.574,0.739c-0.792,0.793 -1.081,2.092 -1.542,3.245c-0.156,0.391 -0.361,1.008 -0.546,1.285c-0.078,0.118 -0.45,0.592 -0.45,0.578" style="fill:#f00;stroke:#f00;stroke-width:0.01px;"/><path d="M152.496,106.078c0.463,0 1.054,-1.484 1.746,-0.848c0.566,0.52 0.022,1.071 -0.362,1.424c-0.066,0.06 0.033,0.272 -0.033,0.333c-0.16,0.147 -0.404,0.109 -0.626,0.212c-0.624,0.286 -1.583,1.122 -2.043,1.756c-0.088,0.122 0.007,0.37 -0.098,0.515c-0.517,0.711 -1.245,1.326 -1.813,1.847c-0.345,0.318 -0.282,1.013 -0.593,1.393c-0.308,0.378 -0.608,0.681 -0.955,1c-0.159,0.146 -0.071,0.52 -0.231,0.666c-0.131,0.121 -0.536,0.311 -0.692,0.454c-0.116,0.107 -0.012,0.435 -0.098,0.515c-0.171,0.157 -0.259,0.164 -0.33,0.424c-0.039,0.145 0.107,0.629 0,0.727c-0.302,0.278 -0.339,0.685 -0.527,1.03c-0.153,0.28 0.16,0.824 -0.033,1.09c-0.379,0.523 -0.261,1.846 -0.857,2.12c-0.061,0.028 -0.193,0.722 -0.296,0.817c-0.248,0.229 -0.015,0.771 -0.198,0.939c-0.224,0.206 -0.849,0.806 -1.482,0.515c-0.076,-0.035 0,-1.007 0,-1.12c0,-0.194 -0.121,-1.556 0.033,-1.696c0.299,-0.275 0.712,-1.035 0.823,-1.545c0.139,-0.639 0.487,-1.182 0.659,-1.817c0.073,-0.266 -0.136,-0.75 0,-0.999c0.248,-0.456 0.801,-0.583 1.087,-1.242c0.064,-0.146 0.231,-0.434 0.231,-0.606c0,-0.051 -0.032,-0.439 0,-0.454c0.219,-0.101 0.5,-0.682 0.659,-0.999c0.443,-0.882 1.085,-1.631 1.548,-2.484c0.557,-1.023 0.577,-2.01 1.549,-2.725c0.463,-0.341 1.099,-0.492 1.581,-0.788c0.479,-0.293 0.95,-0.733 1.483,-1.06c0.109,-0.066 0.524,0 0.659,0c0.639,0 1.647,-0.113 1.647,0.455" style="fill:#f00;"/><path d="M146.828,107.418c0,0.256 -0.967,0.787 -1.154,0.897c-0.827,0.483 -1.037,1.129 -1.551,1.62c-0.252,0.24 -0.727,0.356 -0.938,0.758c-0.219,0.42 -0.6,0.964 -0.866,1.345c-0.22,0.317 -0.024,0.954 -0.288,1.207c-0.364,0.347 -0.591,0.943 -0.938,1.275c-0.313,0.299 -0.296,1.073 -0.577,1.207c-0.357,0.17 -1.243,1.581 -1.371,2.068c-0.186,0.713 -0.3,1.607 -0.649,2.276c-0.054,0.102 0.081,0.404 0,0.482c-0.359,0.343 -0.585,0.841 -0.866,1.379c-0.141,0.271 0.142,1.175 -0.072,1.379c-0.417,0.399 -0.361,1.597 -0.361,2.241c0,1.774 -0.53,3.991 -1.226,5.654c-0.617,1.473 -0.313,3.368 -1.479,4.481c-0.264,0.253 0.188,1.231 -0.036,1.552c-0.259,0.372 0.099,1.064 -0.144,1.413c-0.272,0.39 -0.109,1.274 -0.109,1.758c0,0.336 -0.144,0.639 -0.144,1.035c0,0.057 0,-0.115 0,-0.173c0,-0.092 0,0.184 0,0.276l0,0.448c0,0.419 0.138,1.088 0,1.483c-0.692,1.984 -0.902,3.955 -0.902,6.446l0,1.621c0,0.056 -0.036,0.5 0,0.517c0.046,0.022 0.792,0.409 0.83,0.483c0.073,0.139 1.41,-0.007 1.479,-0.138c0.217,-0.416 0.253,-0.761 0.469,-1.172c0.132,-0.252 -0.026,-0.803 0.18,-1c0.276,-0.264 0.674,-0.611 0.794,-1.069c0.133,-0.508 -0.153,-1.849 0.144,-2.275c0.175,-0.251 0.458,-0.485 0.577,-0.828c0.241,-0.69 -0.116,-1.418 0.072,-2.137c0.146,-0.558 0.325,-0.897 0.614,-1.31c0.098,-0.141 0,-0.685 0,-0.862c0,-0.215 0.097,-0.251 0.18,-0.448c0.222,-0.531 -0.264,-1.415 0.072,-1.896c0.251,-0.36 0,-1.721 0,-2.172c0,-0.905 0.323,-1.067 0.757,-1.689c0.215,-0.308 -0.003,-0.79 0.253,-1.035c0.178,-0.17 -0.165,-0.773 0.036,-0.965c0.315,-0.301 0.468,-0.515 0.685,-0.931c0.14,-0.266 -0.139,-0.733 0,-1c0.301,-0.575 0.931,-1.067 1.263,-1.861c0.368,-0.881 -0.198,-1.785 0.361,-2.586c0.127,-0.183 -0.128,-0.61 0,-0.793c0.522,-0.749 1.246,-1.514 1.623,-2.413c0.56,-1.339 0.597,-2.643 1.046,-3.93c0.437,-1.252 1.112,-1.776 1.515,-2.93c0.083,-0.239 -0.073,-0.551 0,-0.793c0.324,-1.086 0.252,-2.241 0.757,-3.206c0.474,-0.905 1.02,-1.497 1.587,-2.31c0.304,-0.436 0.944,-0.577 1.263,-1.034c0.19,-0.273 -0.132,-0.736 0.108,-0.966c0.256,-0.244 0.601,-0.677 0.866,-0.93c0.309,-0.296 0.744,-0.222 1.046,-0.655c0.581,-0.834 1.727,-0.854 2.2,-1.759c0.061,-0.117 0.776,-0.568 0.433,-0.896c-0.06,-0.058 -0.518,0 -0.613,0c-1,0 -1.182,0.248 -1.876,0.689c-0.049,0.032 -0.64,0.086 -0.649,0.104c-0.231,0.442 -1.197,0.627 -1.551,0.965c-0.168,0.16 -0.614,-0.08 -0.794,0.035c-0.578,0.368 -1.312,1.068 -2.236,1.068" style="fill:#f00;"/><path d="M126.338,85.912c-0.805,0.145 -3.087,4.626 -6.158,4.932c-0.915,0.092 -20.848,6.854 -21.733,7.15c-0.155,0.052 -1.418,0.701 -1.62,0.716c-1.097,0.085 -1.389,0.586 -2.235,0.943c-0.43,0.181 -0.879,0.196 -1.296,0.415c-0.131,0.068 -0.251,0.273 -0.377,0.326c-0.946,0.399 -1.854,1.084 -2.815,1.355c-0.562,0.158 -0.93,0.597 -1.559,0.645c-0.305,0.024 -0.717,0.401 -0.995,0.48c-0.276,0.078 -0.828,0.729 -0.973,0.757c-0.475,0.09 -0.873,0.623 -1.328,0.68c-0.622,0.078 -1.118,0.386 -1.725,0.536c-1.296,0.32 -2.715,1.264 -4.152,1.021c-0.929,-0.158 -1.807,0.947 -2.511,0.771c-0.166,-0.041 -0.394,-0.305 -0.521,-0.414c-0.793,-0.679 -1.209,-0.935 -1.29,-1.981c-0.024,-0.301 0.266,-0.613 0.352,-0.867c0.247,-0.727 1.329,-1.464 1.951,-1.672c0.305,-0.102 0.762,-0.097 1.043,-0.308c0.485,-0.364 1.063,-0.855 1.561,-1.065c0.161,-0.068 0.288,-0.374 0.436,-0.471c0.663,-0.439 1.466,-0.814 2.248,-1.223c0.517,-0.271 1.022,-0.7 1.577,-0.857c0.263,-0.074 0.539,-0.442 0.797,-0.551c0.766,-0.323 1.746,-0.7 2.406,-1.218c0.251,-0.197 0.634,-0.534 0.946,-0.651c0.709,-0.263 1.445,-0.56 2.126,-0.776c0.609,-0.194 1.187,-0.773 1.737,-1.044c1.187,-0.585 2.534,-0.993 3.816,-1.31c1.865,-0.461 3.557,-1.587 5.283,-2.227c0.659,-0.245 1.814,-0.57 2.494,-0.526c0.275,0.018 0.953,0.191 1.212,0.064c1.199,-0.592 2.402,-0.566 3.668,-1.404c0.476,-0.315 1.28,-0.686 1.81,-0.787c0.267,-0.051 0.506,-0.152 0.77,-0.217c7.744,-1.912 12.819,-6.966 15.179,-8.554" style="fill:#f00;"/><path d="M156.841,125.794c-1.402,2.803 -3.595,5.393 -4.67,8.339c-0.257,0.702 -0.551,1.37 -0.801,2.069c-0.034,0.095 -0.163,0.734 0,0.734" style="fill:none;"/><path d="M156.741,123.992c-1.247,3.74 -3.336,7.521 -3.336,11.609" style="fill:none;"/><g><text x="263.483px" y="101.39px" style="font-family:'CourierNewPSMT', 'Courier New', monospace;font-size:60px;">Le Jeu de la Vigne</text><rect x="227.603" y="53.305" width="11.375" height="99.823" style="fill:#00c801;fill-opacity:0.61;stroke:#000;stroke-width:1px;"/><text x="270.919px" y="141.455px" style="font-family:'Bahnschrift', sans-serif;font-size:24px;">Appr<tspan x="322.575px " y="141.455px ">e</tspan>ndr<tspan x="371.794px " y="141.455px ">e</tspan> a tailler en ligne</text></g><path d="M76.437,106l-1.52,-1.302l-1.196,1.397l1.52,1.301l1.196,-1.396Z"/><path d="M78.086,106.886l-1.52,-1.301l-1.196,1.396l1.52,1.302l1.196,-1.397Z"/><path d="M75.527,104.455l-1.52,-1.302l-1.195,1.396l1.52,1.302l1.195,-1.396Z"/><path d="M79.972,106.115l-1.52,-1.301l-1.195,1.396l1.52,1.301l1.195,-1.396Z"/><path d="M76.425,103.1l-1.521,-1.302l-1.195,1.396l1.52,1.302l1.196,-1.396Z"/><path d="M77.944,102.015l-1.52,-1.302l-1.195,1.397l1.52,1.301l1.195,-1.396Z"/><path d="M79.457,100.927l-1.52,-1.301l-1.195,1.396l1.52,1.301l1.195,-1.396Z"/><path d="M80.981,99.849l-1.52,-1.302l-1.195,1.397l1.52,1.301l1.195,-1.396Z"/><path d="M82.537,98.798l-1.52,-1.301l-1.195,1.396l1.52,1.301l1.195,-1.396Z"/><path d="M84.415,97.986l-1.52,-1.302l-1.195,1.396l1.52,1.302l1.195,-1.396Z"/><path d="M86.12,97.025l-1.52,-1.302l-1.196,1.396l1.52,1.302l1.196,-1.396Z"/><path d="M87.975,96.173l-1.521,-1.301l-1.195,1.396l1.52,1.302l1.196,-1.397Z"/><path d="M89.721,95.361l-1.52,-1.302l-1.195,1.397l1.52,1.301l1.195,-1.396Z"/><path d="M91.429,94.44l-1.52,-1.301l-1.196,1.396l1.52,1.301l1.196,-1.396Z"/><path d="M93.149,93.549l-1.52,-1.302l-1.196,1.396l1.521,1.302l1.195,-1.396Z"/><path d="M94.913,92.694l-1.521,-1.301l-1.195,1.396l1.52,1.302l1.196,-1.397Z"/><path d="M96.905,92.055l-1.52,-1.302l-1.196,1.396l1.52,1.302l1.196,-1.396Z"/><path d="M98.761,91.355l-1.52,-1.301l-1.195,1.396l1.52,1.301l1.195,-1.396Z"/><path d="M100.585,90.496l-1.52,-1.301l-1.196,1.396l1.521,1.301l1.195,-1.396Z"/><path d="M102.649,89.992l-1.52,-1.301l-1.196,1.396l1.52,1.302l1.196,-1.397Z"/><path d="M104.932,89.583l-1.52,-1.301l-1.196,1.396l1.52,1.301l1.196,-1.396Z"/><path d="M107.005,89.069l-1.52,-1.302l-1.196,1.396l1.52,1.302l1.196,-1.396Z"/><path d="M109.016,88.408l-1.521,-1.302l-1.195,1.396l1.52,1.302l1.196,-1.396Z"/><path d="M111.081,87.793l-1.52,-1.302l-1.196,1.396l1.52,1.302l1.196,-1.396Z"/><path d="M113.027,87.076l-1.52,-1.302l-1.196,1.397l1.52,1.301l1.196,-1.396Z"/><path d="M113.027,87.076l-1.52,-1.302l-1.196,1.397l1.52,1.301l1.196,-1.396Z"/><path d="M115.279,86.527l-1.52,-1.301l-1.196,1.396l1.52,1.302l1.196,-1.397Z"/><path d="M117.234,85.8l-1.52,-1.302l-1.195,1.396l1.52,1.302l1.195,-1.396Z"/><path d="M119.163,85.125l-1.52,-1.302l-1.195,1.396l1.52,1.302l1.195,-1.396Z"/><path d="M120.982,84.337l-1.52,-1.302l-1.195,1.396l1.52,1.302l1.195,-1.396Z"/><path d="M122.119,82.965l-1.52,-1.302l-1.195,1.397l1.52,1.301l1.195,-1.396Z"/><path d="M123.349,81.616l-1.52,-1.301l-1.195,1.396l1.52,1.301l1.195,-1.396Z"/><path d="M124.562,80.309l-1.52,-1.301l-1.195,1.396l1.52,1.301l1.195,-1.396Z"/><path d="M125.818,78.908l-1.52,-1.302l-1.195,1.397l1.52,1.301l1.195,-1.396Z"/><path d="M127.538,78.148l-1.52,-1.302l-1.195,1.397l1.52,1.301l1.195,-1.396Z"/><path d="M128.17,78.989l-1.52,-1.302l-1.196,1.396l1.52,1.302l1.196,-1.396Z"/><path d="M128.064,80.493l-1.52,-1.302l-1.196,1.397l1.52,1.301l1.196,-1.396Z"/><path d="M127.757,82.013l-1.52,-1.302l-1.196,1.396l1.52,1.302l1.196,-1.396Z"/><path d="M127.937,83.687l-1.52,-1.302l-1.195,1.397l1.52,1.301l1.195,-1.396Z"/><path d="M127.459,85.473l-1.52,-1.302l-1.196,1.396l1.52,1.302l1.196,-1.396Z"/><path d="M126.609,87.035l-1.52,-1.302l-1.195,1.396l1.52,1.302l1.195,-1.396Z"/><path d="M125.417,88.34l-1.52,-1.302l-1.196,1.397l1.52,1.301l1.196,-1.396Z"/><path d="M123.992,89.522l-1.52,-1.302l-1.196,1.397l1.52,1.301l1.196,-1.396Z"/><path d="M122.38,90.637l-1.52,-1.301l-1.195,1.396l1.52,1.302l1.195,-1.397Z"/><path d="M120.533,91.458l-1.52,-1.302l-1.195,1.396l1.52,1.302l1.195,-1.396Z"/><path d="M118.578,92.185l-1.52,-1.301l-1.196,1.396l1.52,1.302l1.196,-1.397Z"/><path d="M116.341,92.672l-1.52,-1.302l-1.195,1.397l1.52,1.301l1.195,-1.396Z"/><path d="M114.248,93.319l-1.52,-1.301l-1.195,1.396l1.52,1.302l1.195,-1.397Z"/><path d="M112.047,93.874l-1.52,-1.302l-1.195,1.397l1.52,1.301l1.195,-1.396Z"/><path d="M110.062,94.614l-1.52,-1.301l-1.195,1.396l1.52,1.301l1.195,-1.396Z"/><path d="M107.942,95.162l-1.52,-1.301l-1.196,1.396l1.52,1.302l1.196,-1.397Z"/><path d="M105.929,95.804l-1.52,-1.302l-1.195,1.396l1.52,1.302l1.195,-1.396Z"/><path d="M103.864,96.418l-1.52,-1.301l-1.195,1.396l1.52,1.302l1.195,-1.397Z"/><path d="M101.802,97.073l-1.52,-1.301l-1.195,1.396l1.52,1.302l1.195,-1.397Z"/><path d="M99.793,97.755l-1.52,-1.302l-1.196,1.396l1.52,1.302l1.196,-1.396Z"/><path d="M97.878,98.479l-1.52,-1.301l-1.196,1.396l1.52,1.302l1.196,-1.397Z"/><path d="M95.881,99.19l-1.52,-1.302l-1.196,1.397l1.52,1.301l1.196,-1.396Z"/><path d="M94.136,100.154l-1.52,-1.301l-1.196,1.396l1.52,1.301l1.196,-1.396Z"/><path d="M92.434,101.155l-1.52,-1.301l-1.195,1.396l1.52,1.301l1.195,-1.396Z"/><path d="M90.502,101.921l-1.52,-1.301l-1.195,1.396l1.52,1.302l1.195,-1.397Z"/><path d="M88.815,102.841l-1.521,-1.302l-1.195,1.396l1.52,1.302l1.196,-1.396Z"/><path d="M87.136,103.749l-1.52,-1.301l-1.195,1.396l1.52,1.301l1.195,-1.396Z"/><path d="M85.28,104.58l-1.52,-1.301l-1.196,1.396l1.52,1.301l1.196,-1.396Z"/><path d="M83.45,105.359l-1.52,-1.302l-1.196,1.397l1.52,1.301l1.196,-1.396Z"/><path d="M81.256,105.883l-1.52,-1.302l-1.195,1.396l1.52,1.302l1.195,-1.396Z"/><path d="M134.608,154.821l1.52,1.302l-1.196,1.396l-1.52,-1.302l1.196,-1.396Z"/><path d="M133.986,153.041l1.52,1.302l-1.195,1.396l-1.52,-1.302l1.195,-1.396Z"/><path d="M135.518,156.673l1.52,1.301l-1.196,1.397l-1.52,-1.302l1.196,-1.396Z"/><path d="M136.851,157.902l1.52,1.302l-1.195,1.396l-1.52,-1.302l1.195,-1.396Z"/><path d="M137.799,156.284l1.52,1.301l-1.195,1.397l-1.52,-1.302l1.195,-1.396Z"/><path d="M137.225,154.307l1.52,1.301l-1.196,1.396l-1.52,-1.301l1.196,-1.396Z"/><path d="M136.856,152.221l1.52,1.301l-1.196,1.397l-1.52,-1.302l1.196,-1.396Z"/><path d="M136.943,149.869l1.52,1.301l-1.195,1.397l-1.52,-1.302l1.195,-1.396Z"/><path d="M137.233,147.74l1.52,1.302l-1.195,1.396l-1.52,-1.301l1.195,-1.397Z"/><path d="M137.702,145.677l1.52,1.302l-1.196,1.396l-1.52,-1.301l1.196,-1.397Z"/><path d="M138.274,143.771l1.52,1.302l-1.196,1.396l-1.52,-1.301l1.196,-1.397Z"/><path d="M138.737,141.773l1.52,1.301l-1.195,1.396l-1.52,-1.301l1.195,-1.396Z"/><path d="M138.841,139.632l1.52,1.301l-1.196,1.397l-1.52,-1.302l1.196,-1.396Z"/><path d="M138.883,137.391l1.52,1.302l-1.196,1.396l-1.52,-1.302l1.196,-1.396Z"/><path d="M139.257,135.238l1.52,1.301l-1.196,1.396l-1.52,-1.301l1.196,-1.396Z"/><path d="M139.878,133.336l1.52,1.302l-1.196,1.396l-1.52,-1.301l1.196,-1.397Z"/><path d="M140.778,131.686l1.52,1.302l-1.196,1.396l-1.52,-1.301l1.196,-1.397Z"/><path d="M141.456,129.956l1.52,1.301l-1.196,1.396l-1.52,-1.301l1.196,-1.396Z"/><path d="M141.906,127.983l1.52,1.302l-1.195,1.396l-1.52,-1.301l1.195,-1.397Z"/><path d="M142.32,125.908l1.52,1.301l-1.196,1.396l-1.52,-1.301l1.196,-1.396Z"/><path d="M143.028,124.094l1.521,1.301l-1.196,1.397l-1.52,-1.302l1.195,-1.396Z"/><path d="M143.883,122.355l1.52,1.301l-1.196,1.396l-1.52,-1.301l1.196,-1.396Z"/><path d="M144.688,120.64l1.52,1.301l-1.195,1.396l-1.52,-1.301l1.195,-1.396Z"/><path d="M145.391,118.902l1.52,1.302l-1.195,1.396l-1.52,-1.302l1.195,-1.396Z"/><path d="M146.012,117.026l1.52,1.301l-1.195,1.397l-1.52,-1.302l1.195,-1.396Z"/><path d="M146.429,114.994l1.52,1.301l-1.195,1.397l-1.52,-1.302l1.195,-1.396Z"/><path d="M147.262,113.283l1.52,1.302l-1.195,1.396l-1.52,-1.301l1.195,-1.397Z"/><path d="M148.13,111.612l1.52,1.302l-1.195,1.396l-1.52,-1.302l1.195,-1.396Z"/><path d="M149.092,110.047l1.52,1.301l-1.195,1.396l-1.52,-1.301l1.195,-1.396Z"/><path d="M150.334,108.742l1.52,1.302l-1.196,1.396l-1.52,-1.301l1.196,-1.397Z"/><path d="M151.715,107.655l1.52,1.301l-1.195,1.397l-1.52,-1.302l1.195,-1.396Z"/><path d="M153.246,106.576l1.52,1.302l-1.196,1.396l-1.52,-1.302l1.196,-1.396Z"/><path d="M154.264,105.015l1.52,1.301l-1.196,1.396l-1.52,-1.301l1.196,-1.396Z"/><path d="M154.91,103.138l1.52,1.302l-1.195,1.396l-1.52,-1.302l1.195,-1.396Z"/><path d="M153.458,102.873l1.52,1.302l-1.196,1.396l-1.52,-1.301l1.196,-1.397Z"/><path d="M151.571,103.619l1.52,1.302l-1.195,1.396l-1.52,-1.302l1.195,-1.396Z"/><path d="M149.83,104.261l1.52,1.302l-1.195,1.396l-1.52,-1.302l1.195,-1.396Z"/><path d="M148.132,104.59l1.52,1.301l-1.195,1.397l-1.52,-1.302l1.195,-1.396Z"/><path d="M146.56,105.658l1.52,1.302l-1.195,1.396l-1.52,-1.301l1.195,-1.397Z"/><path d="M144.906,106.663l1.52,1.301l-1.195,1.396l-1.52,-1.301l1.195,-1.396Z"/><path d="M143.612,107.904l1.52,1.301l-1.195,1.396l-1.52,-1.301l1.195,-1.396Z"/><path d="M142.565,109.43l1.52,1.302l-1.196,1.396l-1.52,-1.302l1.196,-1.396Z"/><path d="M141.673,111.009l1.52,1.301l-1.196,1.397l-1.52,-1.302l1.196,-1.396Z"/><path d="M140.827,112.643l1.52,1.301l-1.195,1.397l-1.52,-1.302l1.195,-1.396Z"/><path d="M139.983,114.294l1.52,1.301l-1.195,1.396l-1.52,-1.301l1.195,-1.396Z"/><path d="M137.392,121.52l1.52,1.301l-1.195,1.397l-1.52,-1.302l1.195,-1.396Z"/><path d="M136.987,123.524l1.52,1.302l-1.196,1.396l-1.52,-1.302l1.196,-1.396Z"/><path d="M136.501,125.439l1.52,1.301l-1.195,1.396l-1.52,-1.301l1.195,-1.396Z"/><path d="M136.143,127.453l1.521,1.301l-1.196,1.396l-1.52,-1.301l1.195,-1.396Z"/><path d="M135.685,129.468l1.52,1.301l-1.196,1.396l-1.52,-1.301l1.196,-1.396Z"/><path d="M135.294,131.516l1.52,1.302l-1.195,1.396l-1.52,-1.301l1.195,-1.397Z"/><path d="M134.86,133.521l1.52,1.302l-1.196,1.396l-1.52,-1.302l1.196,-1.396Z"/><path d="M134.335,135.518l1.521,1.301l-1.196,1.397l-1.52,-1.302l1.195,-1.396Z"/><path d="M134.156,137.751l1.52,1.301l-1.195,1.396l-1.52,-1.301l1.195,-1.396Z"/><path d="M133.796,139.972l1.52,1.302l-1.195,1.396l-1.52,-1.302l1.195,-1.396Z"/><path d="M133.333,144.092l1.52,1.301l-1.195,1.396l-1.52,-1.301l1.195,-1.396Z"/><path d="M133.553,142.163l1.52,1.301l-1.195,1.396l-1.521,-1.301l1.196,-1.396Z"/><path d="M137.966,119.706l1.52,1.302l-1.195,1.396l-1.52,-1.301l1.195,-1.397Z"/><path d="M138.506,117.826l1.52,1.302l-1.195,1.396l-1.52,-1.301l1.195,-1.397Z"/><path d="M139.252,116.038l1.52,1.302l-1.195,1.396l-1.52,-1.301l1.195,-1.397Z"/><path d="M133.322,151.122l1.52,1.301l-1.195,1.396l-1.521,-1.301l1.196,-1.396Z"/><path d="M133.133,148.686l1.52,1.302l-1.195,1.396l-1.52,-1.301l1.195,-1.397Z"/><path d="M133.164,146.342l1.52,1.302l-1.195,1.396l-1.52,-1.302l1.195,-1.396Z"/><path d="M138.561,83.605l-1.52,-1.302l-1.195,1.397l1.52,1.301l1.195,-1.396Z"/><path d="M139.227,82.152l-1.52,-1.301l-1.196,1.396l1.52,1.302l1.196,-1.397Z"/><path d="M140.209,80.76l-1.52,-1.301l-1.196,1.396l1.52,1.301l1.196,-1.396Z"/><path d="M140.453,79.708l-1.52,-1.301l-1.196,1.396l1.52,1.301l1.196,-1.396Z"/><path d="M139.098,79.205l-1.52,-1.302l-1.196,1.396l1.52,1.302l1.196,-1.396Z"/><path d="M137.528,78.859l-1.52,-1.301l-1.195,1.396l1.52,1.301l1.195,-1.396Z"/><path d="M135.619,78.696l-1.52,-1.302l-1.195,1.396l1.52,1.302l1.195,-1.396Z"/><path d="M133.82,78.311l-1.52,-1.301l-1.195,1.396l1.52,1.302l1.195,-1.397Z"/><path d="M131.868,77.953l-1.52,-1.301l-1.196,1.396l1.521,1.301l1.195,-1.396Z"/><path d="M137.382,87.744l-1.521,-1.302l-1.195,1.397l1.52,1.301l1.196,-1.396Z"/><path d="M135.711,88.652l-1.52,-1.302l-1.195,1.396l1.52,1.302l1.195,-1.396Z"/><path d="M134.136,89.142l-1.52,-1.302l-1.196,1.396l1.52,1.302l1.196,-1.396Z"/><path d="M138.069,86.573l-1.52,-1.302l-1.195,1.396l1.52,1.302l1.195,-1.396Z"/><path d="M138.252,85.101l-1.52,-1.302l-1.195,1.396l1.52,1.302l1.195,-1.396Z"/><path d="M129.288,85.201l-1.52,-1.302l-1.196,1.396l1.52,1.302l1.196,-1.396Z"/><path d="M130.983,85.706l-1.52,-1.301l-1.196,1.396l1.52,1.302l1.196,-1.397Z"/><path d="M132.196,87.296l-1.521,-1.301l-1.195,1.396l1.52,1.302l1.196,-1.397Z"/><path d="M132.947,88.781l-1.52,-1.302l-1.195,1.397l1.52,1.301l1.195,-1.396Z"/><path d="M175.093,74.783l-1.52,-1.302l-1.196,1.397l1.52,1.301l1.196,-1.396Z"/><path d="M176.279,73.373l-1.521,-1.302l-1.195,1.396l1.52,1.302l1.196,-1.396Z"/><path d="M177.471,72.025l-1.52,-1.301l-1.195,1.396l1.52,1.301l1.195,-1.396Z"/><path d="M173.935,76.162l-1.52,-1.302l-1.195,1.396l1.52,1.302l1.195,-1.396Z"/><path d="M172.746,77.551l-1.52,-1.302l-1.196,1.397l1.52,1.301l1.196,-1.396Z"/><path d="M171.331,78.769l-1.52,-1.301l-1.196,1.396l1.52,1.301l1.196,-1.396Z"/><path d="M178.219,72.233l-1.52,-1.302l-1.196,1.396l1.52,1.302l1.196,-1.396Z"/><path d="M177.848,73.842l-1.52,-1.302l-1.195,1.396l1.52,1.302l1.195,-1.396Z"/><path d="M177.479,75.168l-1.52,-1.302l-1.195,1.396l1.52,1.302l1.195,-1.396Z"/><path d="M177.024,76.748l-1.521,-1.302l-1.195,1.397l1.52,1.301l1.196,-1.396Z"/><path d="M176.377,78.449l-1.52,-1.301l-1.196,1.396l1.521,1.301l1.195,-1.396Z"/><path d="M175.411,79.986l-1.52,-1.301l-1.195,1.396l1.52,1.301l1.195,-1.396Z"/><path d="M174.35,81.507l-1.521,-1.301l-1.195,1.396l1.52,1.301l1.196,-1.396Z"/><path d="M173.36,83.046l-1.52,-1.301l-1.195,1.396l1.52,1.301l1.195,-1.396Z"/><path d="M172.181,84.423l-1.52,-1.301l-1.195,1.396l1.52,1.301l1.195,-1.396Z"/><path d="M170.9,85.69l-1.52,-1.302l-1.196,1.397l1.52,1.301l1.196,-1.396Z"/><path d="M169.493,86.872l-1.52,-1.301l-1.195,1.396l1.52,1.301l1.195,-1.396Z"/><path d="M168.085,88.031l-1.52,-1.302l-1.195,1.396l1.52,1.302l1.195,-1.396Z"/><path d="M166.215,88.706l-1.52,-1.301l-1.195,1.396l1.52,1.301l1.195,-1.396Z"/><path d="M164.58,89.517l-1.52,-1.302l-1.196,1.397l1.521,1.301l1.195,-1.396Z"/><path d="M162.683,90.147l-1.52,-1.301l-1.196,1.396l1.521,1.302l1.195,-1.397Z"/><path d="M160.654,90.599l-1.52,-1.301l-1.195,1.396l1.52,1.302l1.195,-1.397Z"/><path d="M158.748,90.806l-1.52,-1.301l-1.196,1.396l1.52,1.301l1.196,-1.396Z"/><path d="M156.585,91.209l-1.52,-1.301l-1.195,1.396l1.52,1.302l1.195,-1.397Z"/><path d="M155.93,89.904l-1.52,-1.302l-1.195,1.397l1.52,1.301l1.195,-1.396Z"/><path d="M155.648,87.933l-1.52,-1.302l-1.196,1.396l1.52,1.302l1.196,-1.396Z"/><path d="M155.773,85.895l-1.52,-1.302l-1.196,1.396l1.52,1.302l1.196,-1.396Z"/><path d="M155.961,84.217l-1.52,-1.301l-1.195,1.396l1.52,1.301l1.195,-1.396Z"/><path d="M169.493,86.872l-1.52,-1.301l-1.195,1.396l1.52,1.301l1.195,-1.396Z"/><path d="M169.827,79.912l-1.52,-1.302l-1.196,1.396l1.521,1.302l1.195,-1.396Z"/><path d="M168.042,80.769l-1.52,-1.301l-1.196,1.396l1.52,1.302l1.196,-1.397Z"/><path d="M166.302,81.6l-1.52,-1.302l-1.196,1.397l1.52,1.301l1.196,-1.396Z"/><path d="M164.461,82.344l-1.52,-1.301l-1.196,1.396l1.52,1.301l1.196,-1.396Z"/><path d="M162.611,82.971l-1.521,-1.302l-1.195,1.397l1.52,1.301l1.196,-1.396Z"/><path d="M160.724,83.435l-1.52,-1.301l-1.195,1.396l1.52,1.302l1.195,-1.397Z"/><path d="M158.758,83.788l-1.52,-1.301l-1.195,1.396l1.52,1.301l1.195,-1.396Z"/><path d="M157.133,83.82l-1.52,-1.302l-1.195,1.396l1.52,1.302l1.195,-1.396Z"/><path d="M178.68,70.581l-1.52,-1.301l-1.195,1.396l1.52,1.302l1.195,-1.397Z"/><path d="M129.386,83.184l-1.52,-1.302l-1.195,1.396l1.52,1.302l1.195,-1.396Z"/><path d="M129.654,81.521l-1.52,-1.301l-1.196,1.396l1.52,1.301l1.196,-1.396Z"/><path d="M130.114,79.603l-1.52,-1.301l-1.196,1.396l1.52,1.302l1.196,-1.397Z"/><path d="M129.901,77.766l-1.521,-1.302l-1.195,1.397l1.52,1.301l1.196,-1.396Z"/><path d="M152.666,54.955l-1.52,-1.302l-1.195,1.396l1.52,1.302l1.195,-1.396Z"/><path d="M152.391,55.967l-1.52,-1.302l-1.196,1.396l1.52,1.302l1.196,-1.396Z"/><path d="M151.973,57.273l-1.52,-1.302l-1.196,1.396l1.521,1.302l1.195,-1.396Z"/><path d="M151.575,58.683l-1.52,-1.301l-1.195,1.396l1.52,1.302l1.195,-1.397Z"/><path d="M151.03,60.318l-1.521,-1.302l-1.195,1.396l1.52,1.302l1.196,-1.396Z"/><path d="M150.505,61.774l-1.52,-1.302l-1.195,1.396l1.52,1.302l1.195,-1.396Z"/><path d="M150.059,63.164l-1.52,-1.301l-1.196,1.396l1.52,1.302l1.196,-1.397Z"/><path d="M149.511,64.622l-1.52,-1.301l-1.195,1.396l1.52,1.301l1.195,-1.396Z"/><path d="M149.016,66.3l-1.52,-1.302l-1.195,1.396l1.52,1.302l1.195,-1.396Z"/><path d="M148.078,67.89l-1.52,-1.302l-1.195,1.396l1.52,1.302l1.195,-1.396Z"/><path d="M147.309,69.435l-1.52,-1.301l-1.195,1.396l1.52,1.301l1.195,-1.396Z"/><path d="M146.673,71.167l-1.52,-1.301l-1.196,1.396l1.521,1.301l1.195,-1.396Z"/><path d="M145.866,72.723l-1.52,-1.301l-1.196,1.396l1.52,1.302l1.196,-1.397Z"/><path d="M145.178,74.499l-1.52,-1.302l-1.196,1.396l1.52,1.302l1.196,-1.396Z"/><path d="M144.418,76.154l-1.521,-1.302l-1.195,1.396l1.52,1.302l1.196,-1.396Z"/><path d="M143.495,77.64l-1.52,-1.301l-1.196,1.396l1.52,1.301l1.196,-1.396Z"/><path d="M142.672,79.3l-1.52,-1.302l-1.195,1.397l1.52,1.301l1.195,-1.396Z"/><path d="M141.932,81.118l-1.52,-1.301l-1.195,1.396l1.52,1.302l1.195,-1.397Z"/><path d="M141.1,82.858l-1.52,-1.302l-1.195,1.396l1.52,1.302l1.195,-1.396Z"/><path d="M140.209,84.444l-1.52,-1.301l-1.196,1.396l1.52,1.301l1.196,-1.396Z"/><path d="M139.866,86.413l-1.52,-1.302l-1.196,1.396l1.52,1.302l1.196,-1.396Z"/><path d="M139.526,88.019l-1.52,-1.301l-1.195,1.396l1.52,1.301l1.195,-1.396Z"/><path d="M140.453,89.732l-1.52,-1.301l-1.195,1.396l1.52,1.301l1.195,-1.396Z"/><path d="M142.091,91.441l-1.949,-1.669l-1.196,1.396l1.95,1.669l1.195,-1.396Z"/><path d="M143.422,92.435l-1.52,-1.302l-1.195,1.396l1.52,1.302l1.195,-1.396Z"/><path d="M145.17,93.172l-1.52,-1.301l-1.196,1.396l1.52,1.301l1.196,-1.396Z"/><path d="M146.005,95.026l-1.52,-1.302l-1.195,1.396l1.52,1.302l1.195,-1.396Z"/><path d="M145.409,96.66l-1.521,-1.301l-1.195,1.396l1.52,1.301l1.196,-1.396Z"/><path d="M144.648,98.417l-1.52,-1.301l-1.195,1.396l1.52,1.302l1.195,-1.397Z"/><path d="M144.077,100.073l-1.52,-1.301l-1.196,1.396l1.52,1.302l1.196,-1.397Z"/><path d="M145.623,101.251l-1.52,-1.302l-1.196,1.397l1.52,1.301l1.196,-1.396Z"/><path d="M147.09,102.537l-1.52,-1.302l-1.195,1.396l1.52,1.302l1.195,-1.396Z"/><path d="M147.814,104.674l-1.52,-1.301l-1.195,1.396l1.52,1.301l1.195,-1.396Z"/><path d="M149.604,104.135l-1.52,-1.302l-1.195,1.396l1.52,1.302l1.195,-1.396Z"/><path d="M151.782,103.824l-1.521,-1.301l-1.195,1.396l1.52,1.302l1.196,-1.397Z"/><path d="M153.671,103.049l-1.52,-1.302l-1.195,1.397l1.52,1.301l1.195,-1.396Z"/><path d="M155.862,102.502l-1.52,-1.302l-1.196,1.397l1.52,1.301l1.196,-1.396Z"/><path d="M155.79,100.864l-1.52,-1.301l-1.196,1.396l1.521,1.301l1.195,-1.396Z"/><path d="M155.467,98.924l-1.52,-1.302l-1.196,1.396l1.52,1.302l1.196,-1.396Z"/><path d="M155.117,96.946l-1.52,-1.302l-1.196,1.397l1.521,1.301l1.195,-1.396Z"/><path d="M154.747,94.907l-1.52,-1.302l-1.196,1.397l1.52,1.301l1.196,-1.396Z"/><path d="M154.601,92.929l-1.52,-1.302l-1.195,1.397l1.52,1.301l1.195,-1.396Z"/><path d="M154.187,90.925l-1.52,-1.302l-1.196,1.396l1.52,1.302l1.196,-1.396Z"/><path d="M154.07,89.015l-1.52,-1.301l-1.195,1.396l1.52,1.302l1.195,-1.397Z"/><path d="M154.002,86.709l-1.52,-1.301l-1.196,1.396l1.52,1.301l1.196,-1.396Z"/><path d="M154.13,84.718l-1.52,-1.302l-1.195,1.397l1.52,1.301l1.195,-1.396Z"/><path d="M154.137,83.176l-1.52,-1.301l-1.196,1.396l1.52,1.302l1.196,-1.397Z"/><path d="M153.817,81.283l-1.52,-1.302l-1.195,1.396l1.52,1.302l1.195,-1.396Z"/><path d="M153.549,79.755l-1.52,-1.302l-1.195,1.396l1.52,1.302l1.195,-1.396Z"/><path d="M153.529,52.388l-1.52,-1.302l-1.196,1.396l1.52,1.302l1.196,-1.396Z"/><path d="M152.932,53.672l-1.52,-1.301l-1.195,1.396l1.52,1.301l1.195,-1.396Z"/><path d="M154.758,53.944l-1.52,-1.302l-1.196,1.396l1.52,1.302l1.196,-1.396Z"/><path d="M155.747,55.601l-1.52,-1.302l-1.195,1.396l1.52,1.302l1.195,-1.396Z"/><path d="M156.655,57.276l-1.52,-1.302l-1.195,1.396l1.52,1.302l1.195,-1.396Z"/><path d="M157.585,58.925l-1.52,-1.301l-1.196,1.396l1.52,1.302l1.196,-1.397Z"/><path d="M158.069,60.456l-1.52,-1.301l-1.195,1.396l1.52,1.302l1.195,-1.397Z"/><path d="M158.454,62.078l-1.52,-1.302l-1.195,1.396l1.52,1.302l1.195,-1.396Z"/><path d="M158.713,63.744l-1.52,-1.301l-1.196,1.396l1.521,1.301l1.195,-1.396Z"/><path d="M158.746,65.393l-1.52,-1.302l-1.195,1.396l1.52,1.302l1.195,-1.396Z"/><path d="M158.579,67.045l-1.52,-1.302l-1.195,1.397l1.52,1.301l1.195,-1.396Z"/><path d="M158.463,68.587l-1.52,-1.302l-1.195,1.397l1.52,1.301l1.195,-1.396Z"/><path d="M158.129,70.358l-1.521,-1.301l-1.195,1.396l1.52,1.302l1.196,-1.397Z"/><path d="M157.646,72.047l-1.52,-1.302l-1.195,1.396l1.52,1.302l1.195,-1.396Z"/><path d="M157.214,73.472l-1.52,-1.302l-1.196,1.397l1.521,1.301l1.195,-1.396Z"/><path d="M156.445,75.112l-1.52,-1.302l-1.196,1.396l1.52,1.302l1.196,-1.396Z"/><path d="M155.616,76.744l-1.52,-1.301l-1.196,1.396l1.52,1.302l1.196,-1.397Z"/><path d="M154.374,78.072l-1.52,-1.302l-1.195,1.397l1.52,1.301l1.195,-1.396Z"/><path d="M143.77,82.725l-1.302,1.52l1.397,1.195l1.301,-1.52l-1.396,-1.195Z" style="stroke:#000;stroke-width:0.64px;"/><path d="M145.156,81.978l-1.302,1.52l1.396,1.195l1.302,-1.52l-1.396,-1.195Z" style="stroke:#000;stroke-width:0.64px;"/><path d="M146.539,81.786l-1.302,1.52l1.397,1.195l1.301,-1.52l-1.396,-1.195Z" style="stroke:#000;stroke-width:0.64px;"/><path d="M148.157,82.436l-1.301,1.52l1.396,1.195l1.302,-1.52l-1.397,-1.195Z" style="stroke:#000;stroke-width:0.64px;"/><path d="M148.157,82.436l-1.301,1.52l1.396,1.195l1.302,-1.52l-1.397,-1.195Z" style="stroke:#000;stroke-width:0.64px;"/><path d="M150.618,85.238l-1.52,-1.301l-1.196,1.396l1.52,1.301l1.196,-1.396Z" style="stroke:#000;stroke-width:0.64px;"/><path d="M150.742,86.768l-1.52,-1.301l-1.196,1.396l1.52,1.302l1.196,-1.397Z" style="stroke:#000;stroke-width:0.64px;"/><path d="M150.049,88.203l-1.52,-1.301l-1.195,1.396l1.52,1.301l1.195,-1.396Z" style="stroke:#000;stroke-width:0.64px;"/><path d="M144.336,85.623l-1.52,-1.302l-1.196,1.397l1.52,1.301l1.196,-1.396Z" style="stroke:#000;stroke-width:0.64px;"/><path d="M144.36,87.178l-1.52,-1.302l-1.196,1.397l1.52,1.301l1.196,-1.396Z" style="stroke:#000;stroke-width:0.64px;"/><path d="M145.267,88.732l-1.52,-1.301l-1.195,1.396l1.52,1.301l1.195,-1.396Z" style="stroke:#000;stroke-width:0.64px;"/><path d="M127.353,89.23l-1.52,-1.301l-1.196,1.396l1.52,1.302l1.196,-1.397Z" style="stroke:#000;stroke-width:0.64px;"/><path d="M127.757,90.928l-1.52,-1.302l-1.195,1.396l1.52,1.302l1.195,-1.396Z" style="stroke:#000;stroke-width:0.64px;"/><path d="M128.519,92.799l-1.52,-1.301l-1.196,1.396l1.52,1.302l1.196,-1.397Z" style="stroke:#000;stroke-width:0.64px;"/><path d="M129.375,94.714l-1.52,-1.301l-1.196,1.396l1.52,1.302l1.196,-1.397Z" style="stroke:#000;stroke-width:0.64px;"/><path d="M130.398,96.303l-1.52,-1.301l-1.196,1.396l1.52,1.301l1.196,-1.396Z" style="stroke:#000;stroke-width:0.64px;"/><path d="M131.247,97.875l-1.52,-1.302l-1.195,1.397l1.52,1.301l1.195,-1.396Z" style="stroke:#000;stroke-width:0.64px;"/><path d="M132.584,99.338l-1.52,-1.301l-1.196,1.396l1.52,1.301l1.196,-1.396Z" style="stroke:#000;stroke-width:0.64px;"/><path d="M133.974,100.716l-1.52,-1.301l-1.195,1.396l1.52,1.302l1.195,-1.397Z" style="stroke:#000;stroke-width:0.64px;"/><path d="M135.569,101.856l-1.52,-1.301l-1.196,1.396l1.52,1.302l1.196,-1.397Z" style="stroke:#000;stroke-width:0.64px;"/><path d="M137.142,102.978l-1.521,-1.302l-1.195,1.397l1.52,1.301l1.196,-1.396Z" style="stroke:#000;stroke-width:0.64px;"/><path d="M138.869,104.007l-1.52,-1.302l-1.196,1.396l1.52,1.302l1.196,-1.396Z" style="stroke:#000;stroke-width:0.64px;"/><path d="M140.726,104.884l-1.52,-1.302l-1.195,1.396l1.52,1.302l1.195,-1.396Z" style="stroke:#000;stroke-width:0.64px;"/><path d="M142.336,105.831l-1.52,-1.302l-1.196,1.396l1.521,1.302l1.195,-1.396Z" style="stroke:#000;stroke-width:0.64px;"/><path d="M144.009,106.55l-1.52,-1.301l-1.195,1.396l1.52,1.301l1.195,-1.396Z" style="stroke:#000;stroke-width:0.64px;"/><path d="M145.148,106.381l-1.52,-1.302l-1.195,1.397l1.52,1.301l1.195,-1.396Z" style="stroke:#000;stroke-width:0.64px;"/><path d="M146.362,105.862l-1.52,-1.301l-1.196,1.396l1.52,1.302l1.196,-1.397Z" style="stroke:#000;stroke-width:0.64px;"/><path d="M144.851,104.625l-1.52,-1.302l-1.196,1.397l1.52,1.301l1.196,-1.396Z" style="stroke:#000;stroke-width:0.64px;"/><path d="M143.154,103.604l-1.52,-1.302l-1.195,1.397l1.52,1.301l1.195,-1.396Z" style="stroke:#000;stroke-width:0.64px;"/><path d="M141.485,102.55l-1.52,-1.301l-1.195,1.396l1.52,1.302l1.195,-1.397Z" style="stroke:#000;stroke-width:0.64px;"/><path d="M139.927,101.347l-1.521,-1.302l-1.195,1.397l1.52,1.301l1.196,-1.396Z" style="stroke:#000;stroke-width:0.64px;"/><path d="M138.822,100.27l-1.52,-1.301l-1.195,1.396l1.52,1.301l1.195,-1.396Z" style="stroke:#000;stroke-width:0.64px;"/><path d="M138.822,100.27l-1.52,-1.301l-1.195,1.396l1.52,1.301l1.195,-1.396Z" style="stroke:#000;stroke-width:0.64px;"/><path d="M137.408,98.853l-1.52,-1.301l-1.195,1.396l1.52,1.301l1.195,-1.396Z" style="stroke:#000;stroke-width:0.64px;"/><path d="M136.186,97.169l-1.52,-1.302l-1.195,1.396l1.52,1.302l1.195,-1.396Z" style="stroke:#000;stroke-width:0.64px;"/><path d="M134.735,95.927l-1.52,-1.302l-1.195,1.396l1.52,1.302l1.195,-1.396Z" style="stroke:#000;stroke-width:0.64px;"/><path d="M133.404,94.786l-1.52,-1.301l-1.196,1.396l1.52,1.302l1.196,-1.397Z" style="stroke:#000;stroke-width:0.64px;"/><path d="M131.993,93.278l-1.52,-1.301l-1.196,1.396l1.52,1.301l1.196,-1.396Z" style="stroke:#000;stroke-width:0.64px;"/><path d="M130.777,91.806l-1.52,-1.302l-1.196,1.396l1.521,1.302l1.195,-1.396Z" style="stroke:#000;stroke-width:0.64px;"/><path d="M129.846,90.351l-1.521,-1.301l-1.195,1.396l1.52,1.302l1.196,-1.397Z" style="stroke:#000;stroke-width:0.64px;"/><path d="M128.746,88.809l-1.521,-1.301l-1.195,1.396l1.52,1.301l1.196,-1.396Z" style="stroke:#000;stroke-width:0.64px;"/><path d="M128.164,87.823l-1.52,-1.301l-1.196,1.396l1.52,1.301l1.196,-1.396Z" style="stroke:#000;stroke-width:0.64px;"/><path d="M146.912,89.499l-1.52,-1.301l-1.196,1.396l1.52,1.301l1.196,-1.396Z" style="stroke:#000;stroke-width:0.64px;"/><path d="M148.414,89.53l-1.52,-1.302l-1.195,1.397l1.52,1.301l1.195,-1.396Z" style="stroke:#000;stroke-width:0.64px;"/><path d="M149.209,88.871l-1.52,-1.301l-1.195,1.396l1.52,1.301l1.195,-1.396Z" style="stroke:#000;stroke-width:0.64px;"/><circle cx="133.136" cy="101.566" r="65.201" style="fill:none;stroke:#000;stroke-width:2px;"/><path d="M126.87,89.703l0,1.342c0,0.102 -0.058,0.438 0,0.524c0.308,0.461 0.378,1.154 0.671,1.594c0.195,0.292 0.489,0.54 0.713,0.839c0.13,0.173 0.373,0.637 0.525,0.713c0.006,0.003 0.008,0.68 0.063,0.818c0.171,0.427 0.567,1.07 0.818,1.321c0.134,0.135 0.153,0.405 0.293,0.545c0.166,0.166 0.483,0.274 0.65,0.441c0.135,0.135 0.2,0.343 0.378,0.461c0.144,0.097 0.371,0.163 0.461,0.294c0.231,0.334 0.304,0.849 0.587,1.132c0.211,0.211 0.506,0.359 0.692,0.546c0.057,0.056 0.223,-0.017 0.231,0.062c0.016,0.153 -0.109,0.353 0,0.462c0.176,0.176 0.636,0.516 0.734,0.713c0.407,0.814 1.585,1.332 2.496,1.636c0.284,0.094 0.432,0.556 0.713,0.65c0.302,0.101 0.751,-0.119 1.048,0c0.438,0.175 0.86,0.433 1.321,0.587c0.407,0.135 0.705,0.793 1.049,0.965c0.15,0.075 0.525,0 0.692,0c0.213,0 0.95,0.119 1.112,-0.042c0.293,-0.294 -0.173,-1.141 -0.525,-1.259c-0.435,-0.145 -0.91,-0.457 -1.195,-1.027c-0.108,-0.216 -0.293,-0.682 -0.524,-0.797c-0.747,-0.373 -1.435,-0.812 -2.16,-1.175c-0.388,-0.193 -0.546,-0.922 -1.007,-0.922c-0.063,0 0,-0.126 0,-0.189c0,-0.102 -0.014,-0.224 -0.084,-0.294c-0.168,-0.168 -0.418,-0.386 -0.566,-0.608c-0.157,-0.235 -0.49,-0.342 -0.713,-0.566c-0.356,-0.356 -0.695,-0.716 -1.049,-1.07c-0.744,-0.743 -1.78,-1.558 -2.307,-2.348c-0.068,-0.103 -0.224,0.006 -0.293,-0.063c-0.258,-0.259 -0.518,-0.767 -0.692,-1.028c-0.294,-0.441 -1.05,-0.84 -1.426,-1.216c-0.301,-0.3 -0.529,-0.746 -0.65,-1.112c-0.084,-0.25 -0.355,-0.435 -0.441,-0.692c-0.115,-0.344 -0.245,-0.883 -0.524,-1.069c-0.222,-0.148 -1.065,0 -1.342,0"/><path d="M143.45,85.96c0,-0.041 0.036,-0.078 0.043,-0.119c0.022,-0.121 0.027,-0.25 0.069,-0.362c0.034,-0.09 0.013,-0.228 0.038,-0.326c0.042,-0.169 0.133,-0.361 0.212,-0.519c0.069,-0.137 0.121,-0.377 0.225,-0.481c0.305,-0.305 0.778,-0.465 1.208,-0.551c0.244,-0.049 0.528,-0.037 0.738,0.063c0.048,0.023 0.185,0.022 0.225,0.031c0.291,0.066 0.575,0.156 0.863,0.231c0.493,0.129 1.025,0.047 1.451,0.332c0.028,0.018 0.013,0.106 0.013,0.137l0,0.47c0,0.523 -0.044,1.025 -0.044,1.551c0,0.13 -0.044,0.244 -0.044,0.375c0,0.023 0.015,0.13 0,0.144c-0.287,0.287 -0.495,0.691 -0.807,0.951c-0.154,0.128 -0.321,0.251 -0.488,0.363c-0.081,0.054 -0.2,0.1 -0.269,0.168c-0.152,0.153 -0.381,0.309 -0.6,0.382c-0.064,0.021 -0.096,0.091 -0.181,0.113c-0.127,0.031 -0.272,-0.027 -0.388,-0.05c-0.239,-0.048 -0.449,-0.135 -0.663,-0.251c-0.099,-0.053 -0.234,-0.088 -0.319,-0.156c-0.068,-0.054 -0.171,-0.06 -0.244,-0.106c-0.143,-0.091 -0.266,-0.263 -0.375,-0.388c-0.118,-0.135 -0.277,-0.253 -0.357,-0.413c-0.091,-0.182 -0.095,-0.387 -0.15,-0.594c-0.092,-0.343 -0.156,-0.643 -0.156,-1.001c0,-0.293 -0.019,-0.6 -0.019,-0.882c0,-0.098 -0.044,-0.193 -0.044,-0.269c0,-0.036 -0.044,-0.13 -0.044,-0.106" style="stroke:#000;stroke-width:0.01px;"/></svg>