<?xml version="1.0" encoding="UTF-8" standalone="no"?>
<svg
   xmlns:dc="http://purl.org/dc/elements/1.1/"
   xmlns:cc="http://creativecommons.org/ns#"
   xmlns:rdf="http://www.w3.org/1999/02/22-rdf-syntax-ns#"
   xmlns:svg="http://www.w3.org/2000/svg"
   xmlns="http://www.w3.org/2000/svg"
   xmlns:sodipodi="http://sodipodi.sourceforge.net/DTD/sodipodi-0.dtd"
   xmlns:inkscape="http://www.inkscape.org/namespaces/inkscape"
   id="Layer_3"
   height="550"
   viewBox="0 0 1500 550"
   width="1500"
   data-name="Layer 3"
   version="1.1"
   sodipodi:docname="farmer1_F.svg"
   inkscape:version="0.92.3 (2405546, 2018-03-11)">
  <metadata
     id="metadata51">
    <rdf:RDF>
      <cc:Work
         rdf:about="">
        <dc:format>image/svg+xml</dc:format>
        <dc:type
           rdf:resource="http://purl.org/dc/dcmitype/StillImage" />
        <dc:title />
      </cc:Work>
    </rdf:RDF>
  </metadata>
  <defs
     id="defs49" />
  <sodipodi:namedview
     pagecolor="#ffffff"
     bordercolor="#666666"
     borderopacity="1"
     objecttolerance="10"
     gridtolerance="10"
     guidetolerance="10"
     inkscape:pageopacity="0"
     inkscape:pageshadow="2"
     inkscape:window-width="3706"
     inkscape:window-height="2049"
     id="namedview47"
     showgrid="false"
     inkscape:zoom="1.5697771"
     inkscape:cx="701.88506"
     inkscape:cy="278.85293"
     inkscape:window-x="134"
     inkscape:window-y="55"
     inkscape:window-maximized="1"
     inkscape:current-layer="Layer_3" />
  <path
     style="fill:#00a300;stroke:none;stroke-width:1px;stroke-linecap:butt;stroke-linejoin:miter;stroke-opacity:1;fill-opacity:1"
     d="M 680.54927,219.12994 435.01149,277.36049 678.26938,208.8704 Z"
     id="path882"
     inkscape:connector-curvature="0" />
  <path
     d="m 941.83191,5.027833 c 73.78269,2.5676188 140.13079,21.199152 188.74969,50.139663 48.6141,28.940824 80.7257,69.454824 79.1157,115.288664 -1.6102,45.83346 -36.4874,84.04105 -87.0129,109.50895 -50.5302,25.46628 -118.0263,39.37464 -191.80419,36.80718 -30.2308,-1.05201 -59.0244,-5.05123 -86.08588,-11.10406 -37.63867,-9.81302 -73.73186,-24.17745 -107.56,-42.23518 -45.77698,-28.717 -75.77549,-67.79228 -74.2224,-112.00135 1.61016,-45.83389 36.49127,-84.016536 87.01751,-109.507313 50.52628,-25.4903 118.02467,-39.4640006 191.80247,-36.896554 z"
     style="fill:none;stroke:#00a300;stroke-width:9.97638416;stroke-linecap:butt;stroke-linejoin:miter;stroke-miterlimit:10;stroke-dasharray:none;stroke-opacity:1"
     id="path1688"
     inkscape:connector-curvature="0"
     sodipodi:nodetypes="scccsccscs" />
  <path
     d="m 939.37252,7.70782 c 150.97198,5.353708 271.12018,78.235283 268.20978,162.65582 -2.9105,84.42204 -127.7829,148.57531 -278.75477,143.22158 -33.22535,-1.17825 -64.97183,-5.61242 -94.23054,-12.73295 L 782.19883,284.3515 739.91471,263.63456 C 689.64255,234.01886 659.13759,194.00873 660.62139,150.96741 663.53181,66.546889 788.40562,2.3542605 939.37252,7.70782"
     style="fill:#ffffff;fill-opacity:1;fill-rule:nonzero;stroke:none;stroke-width:0.5075205;stroke-opacity:1"
     id="path1690"
     inkscape:connector-curvature="0"
     sodipodi:nodetypes="cssccccc" />
  <path
     d="M 504,550 V 422 L 432,390 H 88 L 8,422 v 128 z"
     id="path2"
     inkscape:connector-curvature="0"
     style="fill:#259978" />
  <path
     d="m 200,302 v 88 l 56,40 56,-40 v -88 z"
     id="path4"
     inkscape:connector-curvature="0"
     style="fill:#fdcaa7" />
  <path
     d="m 200,361.212 c 52.244,18.922 94.943,-7.19 112,-20.387 V 310 H 200 Z"
     id="path6"
     inkscape:connector-curvature="0"
     style="fill:#eaa475" />
  <path
     d="m 336,294 -56,48 H 232 L 176,294 V 142 h 160 z"
     id="path8"
     inkscape:connector-curvature="0"
     style="fill:#fdcaa7" />
  <path
     d="m 280,342 11.017,-9.443 -53.421,-38.852 A 50.12,50.12 0 0 1 216.989,251.316 V 94 H 208 l -32,32 v 168 l 56,48 z"
     id="path10"
     inkscape:connector-curvature="0"
     style="opacity:0.3;fill:#f9f2ed" />
  <path
     d="m 176,254 -24,-24 v -64 l 24,8 z"
     id="path12"
     inkscape:connector-curvature="0"
     style="fill:#f9bc93" />
  <path
     d="m 336,254 24,-24 v -64 l -24,8 z"
     id="path14"
     inkscape:connector-curvature="0"
     style="fill:#f9bc93" />
  <g
     id="g22"
     style="fill:#d88205"
     transform="translate(0,38)">
    <path
       d="m 128,352 h 48 v 144 h -48 z"
       id="path16"
       inkscape:connector-curvature="0" />
    <path
       d="m 336,352 h 48 v 144 h -48 z"
       id="path18"
       inkscape:connector-curvature="0" />
    <path
       d="m 192,8 h 128 a 16,16 0 0 1 16,16 V 80 H 176 V 24 A 16,16 0 0 1 192,8 Z"
       id="path20"
       inkscape:connector-curvature="0" />
  </g>
  <path
     d="m 80,118 h 352 v 24 H 80 Z"
     id="path24"
     inkscape:connector-curvature="0"
     style="fill:#dd8910" />
  <path
     d="m 96,534 h 320 v 16 H 96 Z"
     id="path26"
     inkscape:connector-curvature="0"
     style="fill:#e29e30" />
  <path
     d="m 256,222 h 16 v -16 h -8 v -16 h -16 v 24 a 8,8 0 0 0 8,8 z"
     id="path28"
     inkscape:connector-curvature="0" />
  <path
     d="M 293.657,267.657 C 275.88505,237.32826 186.00496,273.62359 224.71401,278 l 47.14224,-0.0854 c 13.72142,-0.72017 12.75108,-1.11421 21.80075,-10.2576 z"
     id="path30"
     inkscape:connector-curvature="0"
     style="stroke-width:0.99486166"
     sodipodi:nodetypes="cccc" />
  <path
     d="m 507.249,414.689 -72,-32 A 8.009,8.009 0 0 0 432,382 H 320 v -63.749 l 15.619,-13.388 A 23.976,23.976 0 0 0 344,286.641 v -29.327 l 21.657,-21.657 A 8,8 0 0 0 368,230 v -64 a 8,8 0 0 0 -10.53,-7.59 L 344,162.9 V 150 h 88 a 8,8 0 0 0 8,-8 v -24 a 8,8 0 0 0 -8,-8 H 344 V 62 A 24.027,24.027 0 0 0 320,38 H 192 a 24.027,24.027 0 0 0 -24,24 v 48 H 80 a 8,8 0 0 0 -8,8 v 24 a 8,8 0 0 0 8,8 h 88 v 12.9 l -13.47,-4.49 A 8,8 0 0 0 144,166 v 64 a 8,8 0 0 0 2.343,5.657 L 168,257.314 v 29.327 a 23.976,23.976 0 0 0 8.381,18.223 L 192,318.251 V 382 H 88 a 8,8 0 0 0 -2.971,0.572 l -80,32 A 8,8 0 0 0 0,422 V 550 H 16 V 427.416 L 89.541,398 H 120 V 526 H 104 V 494 H 88 v 56 h 16 v -8 h 304.047 l -0.047,7.952 16,0.1 0.333,-56 -16,-0.1 -0.19,32.048 H 392 V 398 h 38.3 L 496,427.2 V 550 h 16 V 422 a 8,8 0 0 0 -4.751,-7.311 z m -255.218,14.257 a 8.006,8.006 0 0 0 7.938,0 L 314.125,398 H 328 V 526 H 184 V 398 h 13.875 z M 352,177.1 v 49.587 l -8,8 V 179.766 Z M 184,62 a 8.009,8.009 0 0 1 8,-8 h 128 a 8.009,8.009 0 0 1 8,8 v 48 H 216 V 94 h -16 v 16 h -16 z m -96,64 h 336 v 8 H 88 Z m 72,100.687 V 177.1 l 8,2.666 v 54.921 z m 24,59.954 V 150 h 144 v 136.641 a 7.992,7.992 0 0 1 -2.794,6.074 l -45.918,39.359 A 8.005,8.005 0 0 1 274.081,334 H 264 v -40 h -16 v 40 h -10.082 a 8,8 0 0 1 -5.206,-1.926 L 186.794,292.715 A 7.992,7.992 0 0 1 184,286.641 Z m 38.3,57.582 A 24.016,24.016 0 0 0 237.918,350 h 36.163 A 24.019,24.019 0 0 0 289.7,344.223 L 304,331.966 v 53.391 l -48,27.429 -48,-27.429 V 331.966 Z M 136,526 V 398 h 32 v 128 z m 240,0 H 344 V 398 h 32 z"
     id="path32"
     inkscape:connector-curvature="0" />
  <path
     d="m 234.343,179.657 11.313,-11.314 -8,-8 A 8,8 0 0 0 232,158 h -32 v 16 h 28.687 z"
     id="path34"
     inkscape:connector-curvature="0" />
  <path
     d="M 283.313,174 H 312 v -16 h -32 a 8,8 0 0 0 -5.657,2.343 l -8,8 11.313,11.314 z"
     id="path36"
     inkscape:connector-curvature="0" />
  <path
     d="m 208,182 h 16 v 16 h -16 z"
     id="path38"
     inkscape:connector-curvature="0" />
  <path
     d="m 288,182 h 16 v 16 h -16 z"
     id="path40"
     inkscape:connector-curvature="0" />
  <path
     d="m 240,246 v -16 h -16 a 8,8 0 0 0 -4.437,1.344 l -24,16 8.875,13.313 L 226.422,246 Z"
     id="path42"
     inkscape:connector-curvature="0" />
  <path
     d="m 288,230 h -16 v 16 h 13.578 l 21.985,14.656 8.875,-13.312 -24,-16 A 8,8 0 0 0 288,230 Z"
     id="path44"
     inkscape:connector-curvature="0" />
  <path
     style="fill:#ffffff;fill-opacity:1;stroke:none;stroke-width:1.00875819px;stroke-linecap:butt;stroke-linejoin:miter;stroke-opacity:1"
     d="m 435.01149,277.36049 228.65953,-102.64038 23.69699,35.63336 z"
     id="path880"
     inkscape:connector-curvature="0" />
  <text
     xml:space="preserve"
     style="font-style:normal;font-variant:normal;font-weight:normal;font-stretch:normal;font-size:15.68914986px;line-height:1.25;font-family:Ubuntu;-inkscape-font-specification:Ubuntu;letter-spacing:0px;word-spacing:0px;fill:#000000;fill-opacity:1;stroke:none;stroke-width:1.17668629"
     x="682.89899"
     y="269.19104"
     id="text874-1"
     transform="rotate(-4.7970008)"><tspan
       sodipodi:role="line"
       id="tspan872-7"
       x="682.89899"
       y="269.19104"
       style="font-style:normal;font-variant:normal;font-weight:bold;font-stretch:normal;font-size:86.66666412px;font-family:'Abyssinica SIL';-inkscape-font-specification:'Abyssinica SIL Bold';stroke-width:1.17668629">Next Time !</tspan></text>
  <text
     xml:space="preserve"
     style="font-style:normal;font-variant:normal;font-weight:normal;font-stretch:normal;font-size:13.33333302px;line-height:1.25;font-family:Ubuntu;-inkscape-font-specification:Ubuntu;letter-spacing:0px;word-spacing:0px;fill:#000000;fill-opacity:1;stroke:none"
     x="910.9574"
     y="141.66176"
     id="text908"><tspan
       sodipodi:role="line"
       id="tspan906"
       x="910.9574"
       y="154.09499" /></text>
</svg>
