<svg id="Layer_3" height="512" viewBox="0 0 512 512" width="512" xmlns="http://www.w3.org/2000/svg" data-name="Layer 3"><path d="m504 512v-24l-72-136h-344l-80 144v16z" fill="#259978"/><path d="m168 248s-64-8-104 64c0 0 48 48 128-24l8-8v-24z" fill="#4c281d"/><path d="m176 218s-32 38 24 70h16v-64z" fill="#3a1e13"/><path d="m200 264v88l56 40 56-40v-104z" fill="#fdcaa7"/><path d="m200 321.347c52.244 18.922 94.943-7.19 112-20.387v-46.825l-112-6.135z" fill="#eaa475"/><g fill="#e29e30"><path d="m144 352h32v144h-32z"/><path d="m336 352h32v144h-32z"/><path d="m96 496h320v16h-320z"/></g><path d="m176 208-24-16v-48l24 8z" fill="#f9bb91"/><path d="m336 208 24-16v-48l-24 8z" fill="#f9bb91"/><path d="m176 104v120l51.2 58a16 16 0 0 0 12.494 6h39.881a16 16 0 0 0 13.2-6.952l43.225-57.048v-120z" fill="#fdcaa7"/><path d="m208 224v-91.125a232.565 232.565 0 0 1 -32 11.125v80l4.01 4.54 47.19 53.46a16 16 0 0 0 12.49 6h32.31z" fill="#f9f2ed" opacity=".3"/><path d="m304 104 32 32v-32z" fill="#3a1e13"/><path d="m272 104s-16 32-40 40l-8-16s-16 32-48 40v-64z" fill="#4c281d"/><path d="m176 104h160v16h-160z" fill="#8c4007" opacity=".4"/><path d="m192 8h128a16 16 0 0 1 16 16v56a0 0 0 0 1 0 0h-160a0 0 0 0 1 0 0v-56a16 16 0 0 1 16-16z" fill="#d88205"/><path d="m80 80h352v24h-352z" fill="#dd8910"/><path d="m446.331 357.523a8 8 0 0 0 -.836-1.307 31.817 31.817 0 0 0 -25.152-12.216h-100.343v-85.642l22.376-29.526a8 8 0 0 0 1.624-4.832v-11.719l20.438-13.625a8 8 0 0 0 3.562-6.656v-48a8 8 0 0 0 -10.53-7.59l-13.47 4.49v-28.9h88a8 8 0 0 0 8-8v-24a8 8 0 0 0 -8-8h-88v-48a24.027 24.027 0 0 0 -24-24h-128a24.027 24.027 0 0 0 -24 24v48h-88a8 8 0 0 0 -8 8v24a8 8 0 0 0 8 8h88v28.9l-13.47-4.49a8 8 0 0 0 -10.53 7.59v48a8 8 0 0 0 3.563 6.656l20.437 13.625v3.1a52.71 52.71 0 0 0 -8.923 24.417 109.486 109.486 0 0 0 -30.607 5.615c-20.507 6.836-49.551 23.264-71.463 62.705a8 8 0 0 0 1.336 9.542c.568.567 14.187 13.943 38.576 17.27a81.771 81.771 0 0 0 11.067.746c32.415 0 62.441-18.763 84.014-37.056v45.38h-93.383a32.064 32.064 0 0 0 -23.678 10.474 7.969 7.969 0 0 0 -1.135 1.607l-72.858 136.145a8 8 0 0 0 -.946 3.774v16h16v-13.994l71.4-133.411a16.037 16.037 0 0 1 11.217-4.595h36.315v128h-30.932v-27.719l20.438-13.625a8 8 0 0 0 3.562-6.656v-32h-16v27.719l-20.437 13.625a8 8 0 0 0 -3.563 6.656v56h16v-8h304v8h16v-56a8 8 0 0 0 -3.562-6.656l-20.438-13.625v-27.719h-16v32a8 8 0 0 0 3.563 6.656l20.437 13.625v27.719h-31.581v-128h43.924a15.9 15.9 0 0 1 12.13 5.566l63.527 124.359v22.075h16v-24a7.994 7.994 0 0 0 -.876-3.64zm-248.895 2.477 53.914 38.51a8 8 0 0 0 9.3 0l53.914-38.51h13.436v128h-144v-128zm-21.5-123.99 16.064 18.202v18.84c-9.465-7.494-15.058-15.591-16.637-24.181a29.657 29.657 0 0 1 .569-12.861zm128.064 111.873-48 34.286-48-34.286v-75.546l13.083 14.821a23.877 23.877 0 0 0 18.607 8.842h39.881a23.992 23.992 0 0 0 19.675-10.256l4.754-6.273zm24-126.571-41.609 54.905c-.076.1-.15.2-.222.308a8 8 0 0 1 -6.6 3.476h-39.879a7.959 7.959 0 0 1 -6.247-3c-.081-.1-.164-.2-.25-.3l-25.193-28.54v-.161h-.143l-23.857-27.026v-47.029c18.563-6.5 31.527-19.85 39.1-29.848l1.74 3.481a8 8 0 0 0 9.686 4.012c21.364-7.122 36.532-29.88 42.193-39.59h23.962l27.319 27.314v82zm24-66.212v32.619l-8 5.333v-35.286zm-24-38.414-4.686-4.686h4.686zm-144-92.686a8.009 8.009 0 0 1 8-8h128a8.009 8.009 0 0 1 8 8v48h-112v-16h-16v16h-16zm-96 64h336v8h-336zm169.708 24c-.982 1.394-2.051 2.847-3.209 4.327-6.095 7.788-12.482 13.64-18.771 17.24l-4.572-9.146a8 8 0 0 0 -7.141-4.413h-.015a8.016 8.016 0 0 0 -7.144 4.4c-.127.252-11.393 22.089-32.853 32.256v-44.664zm-97.708 75.719v-32.619l8 2.666v35.286zm-85.6 122.334c15.034-24.548 34.654-41.09 58.4-49.215a93.43 93.43 0 0 1 27.784-5.072c3.08 11.022 10.368 21.082 21.779 30.051-57.518 49.338-95.227 32.794-107.963 24.236zm76.533 177.947v-128h17.067v128zm209.486 0h-16.419v-128h16.419z"/><path d="m216 160h16v16h-16z"/><path d="m280 160h16v16h-16z"/><path d="m260 232a12.013 12.013 0 0 1 -12-12h-16a28 28 0 0 0 56 0h-16a12.013 12.013 0 0 1 -12 12z"/><path d="m248 208h24v-16h-13.754l5.515-22.06a7.975 7.975 0 0 0 .239-1.94v-8h-16v7.015l-7.761 31.045a8 8 0 0 0 7.761 9.94z"/><circle cx="208" cy="200" r="8"/><circle cx="304" cy="200" r="8"/><path d="m274.343 138.343-8 8 11.314 11.314 5.656-5.657h28.687v-16h-32a8 8 0 0 0 -5.657 2.343z"/></svg>