<?xml version="1.0" encoding="UTF-8" standalone="no"?><!DOCTYPE svg PUBLIC "-//W3C//DTD SVG 1.1//EN" "http://www.w3.org/Graphics/SVG/1.1/DTD/svg11.dtd"><svg width="100%" height="100%" viewBox="0 0 400 400" version="1.1" xmlns="http://www.w3.org/2000/svg" xmlns:xlink="http://www.w3.org/1999/xlink" xml:space="preserve" xmlns:serif="http://www.serif.com/" style="fill-rule:evenodd;clip-rule:evenodd;stroke-linecap:round;stroke-linejoin:round;stroke-miterlimit:1.5;"><circle cx="199.755" cy="200.345" r="197.218" style="fill:#00f505;stroke:#000;stroke-width:4px;"/><path d="M263.615,157.568c0,-1.821 0.555,-3.561 0.555,-5.471l0,-2.062c0,-0.317 -0.224,-1.176 0,-0.951c0.799,0.798 3.077,-1.031 4.282,-1.031c2.514,0 5.015,0.079 7.533,0.079c0.592,0 2.297,0.082 2.696,-0.317c1.435,-1.436 3.737,-1.991 5.312,-3.251c0.982,-0.786 2.967,-0.476 4.203,-0.476c0.155,0 1.38,0.095 1.427,0c0.427,-0.854 1.628,-0.793 2.617,-0.793c0.129,0 1.149,0.08 1.189,0c1.233,-2.465 4.932,-3.386 7.454,-3.806c0.332,-0.055 2.015,-0.112 2.22,-0.317c1.402,-1.403 3.467,-3.139 4.599,-4.837c0.299,-0.449 1.229,-2.22 1.744,-2.22c0.26,0 0.497,0.461 0.714,0.317c2.873,-1.915 3.663,-3.854 5.709,-6.581c1.081,-1.441 2.975,-2.341 4.123,-3.489c0.475,-0.475 0.861,-1.359 1.11,-1.982c0.417,-1.042 1.869,-1.677 2.3,-2.538c0.801,-1.603 3.045,-2.886 3.964,-3.806c1.67,-1.67 2.33,-4.262 3.172,-5.947c0.402,-0.804 1.903,-2.005 1.903,-2.696c0,-0.29 0,0.582 0,0.872c0,0.492 0.075,1.123 -0.079,1.586c-0.254,0.763 -0.601,2.901 -1.031,3.331c-0.13,0.129 0.042,0.751 -0.079,0.872c-2.122,2.122 -1.269,7.506 -1.269,10.942c0,0.25 -0.825,0.999 -1.11,1.427c-0.226,0.339 -0.267,1.025 -0.634,1.269c-0.902,0.601 -0.999,2.235 -1.507,3.251c-0.074,0.147 -0.053,1.005 -0.159,1.11c-0.706,0.707 -0.715,1.827 -1.348,2.776c-1.082,1.623 -2.021,3.547 -3.092,5.154c-0.632,0.947 -1.511,1.748 -2.22,2.458c-0.88,0.88 -1.369,2.726 -1.983,3.647c-0.721,1.082 -2.079,2.142 -2.775,2.855c-1.817,1.86 -4.204,2.935 -6.026,4.757c-0.624,0.624 -1.364,1.253 -1.903,2.062c-0.447,0.67 -0.06,1.17 -0.634,1.744c-0.452,0.452 -0.992,0.9 -1.666,1.348c-0.067,0.045 -0.597,-0.074 -0.634,0c-0.399,0.797 -1.538,1.451 -2.458,2.141c-0.547,0.41 -1.825,0.001 -2.458,0.317c-0.441,0.221 -1.057,1.399 -1.903,1.903c-2.641,1.574 -5.294,2.346 -8.009,3.251c-2.456,0.819 -6.12,0.491 -7.929,2.3c-0.673,0.673 -2.733,-0.299 -3.647,0.158c-0.981,0.491 -1.815,1.225 -2.696,1.666c-0.97,0.484 -2.937,-0.501 -3.806,0.079c-0.528,0.351 -1.498,0.875 -2.458,0.555c-0.641,-0.214 -0.526,-0.8 -0.873,-1.031c-0.933,-0.622 -2.227,-1.32 -2.458,-2.934c-0.054,-0.378 0.213,-1.346 0,-1.665c-0.268,-0.403 -0.534,-0.703 -0.872,-0.872c-0.148,-0.074 0,-1.616 0,-1.903c0,-2.078 0.079,-4.126 0.079,-6.185c0,-0.468 -0.276,-2.657 0,-2.934c0.33,-0.33 0.952,-2.489 0.952,-3.013c0,-0.301 -0.125,1.152 -0.238,0.872c-0.588,-1.452 0.346,-3.181 1.507,-3.568c1.775,-0.592 4.128,0.477 5.55,0.952c2.808,0.935 6.101,-0.635 8.722,-0.635" style="fill:#8b8b8b;stroke:#8b8b8b;stroke-width:0.01px;"/><path d="M264.567,158.837c0,-1.703 -0.659,-5.423 0.079,-6.899c0.514,-1.029 1.144,-1.954 1.744,-2.854c0.282,-0.423 0.947,-0.024 1.269,-0.238c1.388,-0.926 1.873,-0.865 3.489,-1.269c1.979,-0.495 3.834,-1.665 6.185,-1.665c0.376,0 2.026,-0.212 2.22,0.079c0.343,0.514 0.57,1.155 0.793,1.824c1.73,5.191 -5.689,5.827 -8.722,7.85c-1.749,1.165 -4.029,3.655 -6.582,2.379c-0.155,-0.078 0.093,-1.163 0,-1.348c-0.188,-0.377 -0.544,0.011 -0.793,-0.238c-0.325,-0.326 0,-2.586 0,-3.093" style="fill:#898686;stroke:#8b8b8b;stroke-width:0.01px;"/><path d="M186.638,140.984l0,-11.894c0,-0.135 -0.2,0.336 -0.08,0.396c0.457,0.229 0.946,0.387 1.428,0.555c0.652,0.229 1.763,0 2.458,0c1.979,0 3.524,0.555 5.63,0.555c0.844,0 1.951,-0.189 2.458,0.318c0.133,0.133 0.753,-0.05 0.951,0c0.449,0.112 1.758,0.696 2.141,0.951c0.797,0.531 2.583,-0.125 3.489,0.238c0.829,0.332 1.871,0.359 2.696,0.634c0.153,0.051 1.288,-0.12 1.348,0c0.224,0.448 1.036,0.717 1.506,0.952c0.557,0.278 1.504,-0.085 1.824,0.555c0.045,0.09 1.199,0 1.348,0c0.463,0 1.172,0.44 1.348,0.793c0.301,0.601 1.777,-0.126 2.141,0.238c0.61,0.609 -0.353,2.255 -0.714,2.616c-1.858,1.858 -3.827,3.056 -4.995,5.392c-0.261,0.522 0,1.861 0,2.458c0,1.767 -0.218,3.391 -0.555,5.075c-0.337,1.685 -1.018,3.304 -1.745,4.758c-0.169,0.338 0.272,1.431 -0.079,1.665c-0.692,0.461 -1.514,0.966 -1.824,1.586c-0.151,0.302 -0.911,0.098 -1.189,0.237c-0.674,0.337 -2.984,1.661 -3.41,2.3c-0.283,0.424 -0.86,1.495 -1.189,1.824c-0.301,0.301 -3.972,0.156 -4.44,0c-0.717,-0.239 -0.844,-1.053 -1.11,-1.586c-0.272,-0.543 -1.899,-2.178 -2.459,-2.458c-0.303,-0.152 -0.071,-1.333 -0.237,-1.665c-0.438,-0.875 -0.554,-2.138 -1.031,-3.093c-0.132,-0.264 -0.966,-0.411 -1.19,-0.634c-0.388,-0.388 -0.754,-1.051 -1.348,-1.348c-1.686,-0.843 -4.442,-0.517 -5.947,-1.269c-0.059,-0.03 0,-0.998 0,-1.11l0,-3.013c0,-2.389 1.08,-5.045 2.379,-6.343c0.123,-0.123 0,-0.996 0,-1.19c0,-0.985 0.714,-3.267 0.714,-2.22" style="fill:#8c8b8b;stroke:#8a8a8a;stroke-width:0.01px;"/><path d="M240.79,98.956c0,-0.751 1.123,-2.031 1.463,-2.695c0.125,-0.244 0.26,-2.783 0.407,-2.855c0.438,-0.214 1.169,-1.407 1.463,-1.982c0.179,-0.349 0.158,-1.66 0.407,-1.903c1.272,-1.241 1.523,-3.458 2.683,-5.154c0.113,-0.166 -0.149,-0.807 0,-0.952c0.823,-0.803 1.474,-3.053 1.788,-4.282c0.513,-2.001 2.593,-4.031 3.74,-5.709c0.151,-0.22 0.189,-1.845 0.325,-2.379c0.948,-3.698 -0.29,-8.734 1.87,-11.893c0.36,-0.527 0.872,-3.121 1.139,-3.251c0.147,-0.072 0.747,-0.666 0.813,-0.793c0.084,-0.166 0,-0.74 0,-0.555c0,1.496 3.826,0.879 4.471,1.823c0.512,0.749 0.174,3.002 0.569,3.965c0.201,0.49 1.316,2.346 1.545,2.458c0.511,0.249 1.244,0.524 1.545,1.11c0.562,1.097 1.506,2.817 2.52,3.806c0.542,0.529 -0.542,2.643 0,3.172c1.211,1.181 1.431,1.999 2.195,3.489c0.558,1.088 1.387,1.282 1.789,2.458c0.737,2.156 -1.034,5.595 0,7.612c0.139,0.272 -0.011,1.338 0.162,1.506c1.478,1.441 1.138,4.91 1.138,6.978l0,5.471c0,0.546 0.214,1.789 -0.081,2.221c-0.41,0.6 -1.169,1.219 -1.545,1.585c-0.316,0.309 0.116,1.849 0,2.3c-0.157,0.614 -0.905,2.072 -1.544,2.696c-1.354,1.32 -5.18,-0.144 -6.586,-0.555c-3.774,-1.104 -6.993,-2.538 -10.65,-4.123c-0.198,-0.086 -1.383,0.157 -1.463,0c-0.112,-0.218 -1.199,-0.471 -1.545,-0.555c-0.903,-0.221 -1.754,-0.676 -2.602,-0.952c-0.668,-0.217 -1.732,0.305 -2.357,0c-0.606,-0.295 -1.468,-1.673 -1.708,-2.141c-0.599,-1.168 -0.492,-4.232 0.082,-5.63c0.414,-1.01 -0.148,-2.393 0.569,-3.092c0.23,-0.225 -0.231,-1.123 0,-1.348c0.756,-0.738 1.489,-2.377 2.032,-3.172c0.629,-0.919 1.02,-2.166 1.708,-3.171c0.111,-0.164 0,-2.273 0,-1.031" style="fill:#8b8b8b;stroke:#8c8b8b;stroke-width:0.01px;"/><path d="M239.795,208.7c0,-0.288 0.184,-1.643 0,-1.824c-0.417,-0.411 -1.093,-0.17 -1.368,-0.714c-0.653,-1.287 -0.827,-2.768 -1.69,-4.044c-1.007,-1.487 -3.152,-3.342 -4.427,-4.599c-0.703,-0.692 -1.008,-2.361 -1.61,-3.251c-0.228,-0.337 0,-1.641 0,-2.061c0,-2.028 -0.409,-4.477 1.288,-5.313c0.228,-0.112 0.006,-1.909 0.241,-2.141c0.6,-0.59 1.286,-1.505 1.932,-2.141c0.173,-0.17 0,-1.4 0,-1.665c0,-1.961 -0.826,-3.372 -1.529,-4.757c-0.148,-0.292 -1.029,-0.502 -1.127,-0.793c-0.411,-1.217 -1.865,-1.252 -2.736,-1.824c-1.315,-0.864 -2.881,-1.736 -4.186,-2.379c-0.425,-0.209 -0.517,-0.702 -0.724,-1.11c-0.348,-0.687 -2.125,-0.84 -2.575,-1.506c-0.423,-0.625 -1.64,-2.037 -2.334,-2.379c-0.005,-0.002 -0.352,-1.273 -0.403,-1.348c-0.222,-0.328 -0.715,-0.625 -1.046,-0.952c-0.256,-0.252 0.126,-0.906 -0.081,-1.11c-0.633,-0.623 -0.322,-2.481 -0.322,-3.489c0,-0.427 0.28,-2.499 0,-2.775c-0.654,-0.645 -1.325,1.684 -0.321,1.189c0.088,-0.043 0,-1.081 0,-1.189c0,-1.108 -0.271,-2.503 0,-3.568c0.259,-1.024 0.965,-2.656 1.529,-3.489c0.309,-0.457 -0.31,-1.525 0,-1.982c0.801,-1.185 2.213,-3.093 2.897,-4.441c0.268,-0.527 -0.222,-1.434 0,-1.982c0.293,-0.721 0.418,-1.781 0.724,-2.537c0.652,-1.605 1.452,-2.226 2.254,-3.806c0.214,-0.422 -0.263,-1.277 0,-1.666c0.477,-0.704 0.882,-1.475 1.449,-2.22c0.703,-0.924 1.13,-2.54 1.851,-3.251c0.66,-0.65 1.617,-1.6 1.931,-2.22c0.36,-0.708 0.497,-1.83 1.288,-2.22c0.08,-0.04 0.5,-2.35 0.564,-2.538c0.61,-1.802 1.892,-4.263 2.978,-5.867c0.828,-1.225 0.531,-3.402 1.287,-4.52c1.444,-2.134 2.73,-4.866 4.266,-7.136c0.141,-0.208 -0.082,-0.71 0,-0.952c0.289,-0.853 0.995,-1.541 1.207,-2.378c0.085,-0.336 -0.218,-1.162 0.161,-1.348c1.296,-0.639 5.103,-2.046 7.002,-1.111c2.329,1.148 4.22,2 6.439,3.093c1.38,0.68 3.973,-0.37 5.473,0c1.274,0.314 2.755,0.287 3.944,0.872c1.307,0.644 2.532,1.842 3.46,2.3c0.47,0.231 1.85,0.554 2.254,0.951c0.22,0.217 0.014,1.942 -0.08,2.22c-0.237,0.699 -0.332,1.719 -0.725,2.3c-0.129,0.19 0.161,0.793 0,0.951c-0.577,0.569 -1.13,1.6 -1.368,2.538c-0.399,1.572 0.228,4.895 -0.644,6.184c-0.49,0.725 -1.314,1.295 -1.932,1.903c-0.468,0.462 -0.331,1.204 -0.643,1.666c-1.275,1.883 -2.724,3.514 -4.347,6.026c-1.483,2.296 -3.058,4.132 -3.058,6.819c0,3.365 -0.422,7.256 0.885,9.832c0.423,0.832 -0.08,2.809 -0.08,3.727l0,9.277c0,3.626 -0.597,6.618 0.644,9.674c0.282,0.696 0.209,1.777 0.563,2.3c0.175,0.257 -0.119,0.816 0,1.11c0.567,1.396 0.564,3.234 0.564,4.757c0,0.553 -0.242,1.823 0,2.3c0.86,1.696 1.537,3.786 2.253,5.55c0.987,2.43 -0.647,6.015 0,8.564c0.226,0.891 0.943,3.041 1.69,3.409c0.081,0.04 0,1.06 0,1.19c0,1.15 0.282,2.696 0,3.806c-0.191,0.754 -0.546,2.115 -1.046,2.854c-0.185,0.273 0.23,1.122 0,1.348c-0.16,0.158 -1.353,0 -1.61,0c-1.172,0 -3.803,-0.505 -4.829,0c-0.462,0.228 -0.61,1.088 -1.127,1.428c-0.407,0.267 -1.694,-0.234 -2.012,0.079c-0.577,0.568 -1.737,1.062 -2.656,1.665c-1.233,0.81 -4.399,-0.364 -5.875,0c-0.803,0.198 -1.042,1.386 -1.771,1.744c-0.413,0.204 -1.46,0 -1.931,0c-0.194,0 -1.083,0.123 -1.207,0c-0.915,-0.9 0.124,-2.371 -0.483,-3.568c-0.107,-0.209 -1.091,-0.281 -1.369,-0.555" style="fill:#8a8a8a;stroke:#808080;stroke-width:0.01px;"/><path d="M201.689,353.998c0,1.861 0.526,2.864 1.543,3.881c0.136,0.136 0.027,0.812 0.149,0.995c0.237,0.357 0.431,0.648 0.696,1.045c0.324,0.486 -0.189,1.622 0,2.189c0.099,0.298 0.469,0.981 0.697,1.095c0.171,0.085 -0.177,1.031 0.05,1.144c0.422,0.211 1.107,1.687 1.443,2.19c0.174,0.261 0.301,1.097 0.447,1.244c0.149,0.148 0.533,0.963 0.597,0.995c0.295,0.147 1.309,0.776 1.443,1.045c0.307,0.613 1.224,1.93 1.841,2.239c0.567,0.283 2.02,0 2.687,0c0.252,0 1.432,0.16 1.592,0c0.119,-0.119 0,-1.073 0,-1.244c0,-0.63 -0.044,-1.584 -0.348,-2.04c-0.46,-0.69 -1.269,-0.896 -1.642,-1.642c-0.373,-0.746 -0.597,-2.029 -0.597,-2.886c0,-0.701 0.12,-1.821 -0.348,-2.289c-0.469,-0.469 -0.105,-2.568 -0.846,-1.642c-0.104,0.13 0,-0.331 0,-0.497l0,-0.846c0,-0.982 -0.077,-2.057 0.199,-2.886c0.08,-0.241 -0.17,-1.024 0,-1.194c0.822,-0.822 0.466,-2.317 0.696,-3.582c0.429,-2.356 1.825,-4.494 0.797,-7.066c-0.127,-0.315 0.223,-1.17 0,-1.393c-0.052,-0.051 -0.309,0.059 -0.349,0c-0.41,-0.615 0.897,-2.291 1.095,-2.687c0.61,-1.22 -0.61,-3.356 0,-4.577c0.212,-0.425 0.617,-0.737 0.796,-1.095c0.655,-1.31 0.882,-3.147 1.642,-4.478c0.596,-1.042 0.389,-1.953 0.746,-2.935c0.541,-1.487 1.518,-3.954 0.946,-5.672c-0.626,-1.877 -2.606,-1.048 -3.981,-0.498c-0.194,0.078 -0.511,-0.093 -0.696,0c-0.599,0.3 -0.494,1.286 -0.846,1.99c-0.839,1.677 -2.258,3.097 -3.135,5.026c-1.684,3.705 -2.93,7.635 -3.433,11.991c-0.062,0.533 0.332,2.288 0,2.786c-0.704,1.057 -0.793,3.516 -1.045,4.776c-0.131,0.654 0.099,1.818 -0.249,2.339c-0.367,0.551 -1.016,0.978 -1.492,1.692c-0.33,0.494 0.167,1.515 -0.149,1.99c-0.495,0.741 -0.996,0.473 -0.996,1.592" style="fill:#f00;stroke:#f00;stroke-width:0.01px;"/><path d="M221.99,275.666c-1.362,1.361 -1.772,3.915 -2.138,5.927c-0.227,1.254 -1.402,2.785 -2.137,3.888c-1.983,2.973 -3.305,7.095 -4.859,10.203c-0.512,1.023 -2.553,4.553 -2.138,4.276c0.006,-0.004 -0.18,1.204 -0.195,1.263c-0.016,0.065 -0.536,1.872 -0.68,1.944c-0.879,0.439 -1.846,4.276 -1.846,5.345c0,3.191 -0.195,6.55 -0.195,9.815c0,1.644 -0.57,3.658 -0.291,5.053c0.135,0.676 1.209,2.32 1.555,3.012c0.414,0.829 0.691,2.433 1.555,2.721c0.638,0.213 2.602,3.239 3.984,1.167c0.177,-0.266 -0.08,-0.945 0,-1.264c0.391,-1.566 0.406,-3.63 1.166,-5.15c0.18,-0.36 -0.179,-1.376 0.097,-1.652c1.886,-1.886 0.444,-5.913 1.069,-9.038c1.311,-6.553 1.757,-12.644 5.442,-18.172c1.049,-1.573 -0.06,-3.827 1.166,-5.053c1.257,-1.257 0.075,-3.161 0.778,-4.568c0.876,-1.752 2.036,-2.808 2.721,-4.178c0.249,-0.499 -0.357,-2.997 -0.583,-3.11c-2.006,-1.003 -3.631,1.104 -4.762,2.235c-2.398,2.398 -3.27,6.329 -4.665,9.815c-0.473,1.183 -1.092,3.048 -1.652,3.887c-0.237,0.356 -1.36,1.79 -1.36,1.749" style="fill:#f00;stroke:#f00;stroke-width:0.01px;"/><path d="M258.314,213.994c1.399,0 3.188,-4.489 5.282,-2.565c1.711,1.573 0.064,3.238 -1.096,4.305c-0.2,0.184 0.099,0.825 -0.1,1.008c-0.485,0.446 -1.221,0.332 -1.893,0.641c-1.887,0.867 -4.789,3.396 -6.179,5.313c-0.268,0.369 0.019,1.119 -0.299,1.557c-1.561,2.153 -3.765,4.01 -5.481,5.588c-1.047,0.962 -0.855,3.063 -1.794,4.214c-0.932,1.142 -1.841,2.058 -2.89,3.023c-0.482,0.443 -0.216,1.572 -0.698,2.015c-0.397,0.365 -1.621,0.941 -2.093,1.374c-0.351,0.323 -0.036,1.316 -0.299,1.557c-0.517,0.476 -0.782,0.497 -0.996,1.283c-0.119,0.437 0.322,1.902 0,2.198c-0.914,0.84 -1.027,2.072 -1.595,3.115c-0.461,0.848 0.485,2.492 -0.099,3.298c-1.148,1.581 -0.791,5.584 -2.591,6.412c-0.186,0.085 -0.585,2.186 -0.897,2.473c-0.751,0.69 -0.046,2.332 -0.598,2.84c-0.679,0.624 -2.568,2.438 -4.485,1.557c-0.23,-0.106 0,-3.046 0,-3.389c0,-0.587 -0.363,-4.704 0.1,-5.13c0.904,-0.831 2.156,-3.129 2.491,-4.672c0.421,-1.934 1.471,-3.576 1.993,-5.496c0.22,-0.806 -0.411,-2.267 0,-3.023c0.75,-1.377 2.422,-1.764 3.289,-3.756c0.192,-0.441 0.698,-1.312 0.698,-1.832c0,-0.156 -0.096,-1.33 0,-1.374c0.663,-0.305 1.511,-2.063 1.993,-3.023c1.338,-2.666 3.281,-4.933 4.684,-7.511c1.684,-3.096 1.743,-6.082 4.684,-8.244c1.4,-1.03 3.323,-1.487 4.783,-2.382c1.446,-0.886 2.873,-2.218 4.485,-3.206c0.328,-0.201 1.585,0 1.993,0c1.932,0 4.983,-0.345 4.983,1.374" style="fill:#f00;"/><path d="M241.169,218.048c0,0.773 -2.925,2.38 -3.491,2.711c-2.502,1.462 -3.138,3.416 -4.692,4.901c-0.76,0.727 -2.199,1.076 -2.836,2.294c-0.664,1.268 -1.814,2.914 -2.619,4.067c-0.668,0.958 -0.074,2.887 -0.873,3.65c-1.099,1.051 -1.786,2.855 -2.836,3.858c-0.947,0.905 -0.897,3.244 -1.746,3.65c-1.078,0.515 -3.76,4.781 -4.146,6.256c-0.564,2.157 -0.907,4.862 -1.964,6.883c-0.162,0.31 0.246,1.224 0,1.46c-1.084,1.036 -1.768,2.544 -2.619,4.171c-0.427,0.818 0.429,3.553 -0.218,4.171c-1.262,1.207 -1.091,4.83 -1.091,6.778c0,5.366 -1.604,12.071 -3.709,17.101c-1.865,4.456 -0.948,10.187 -4.474,13.557c-0.799,0.764 0.568,3.721 -0.109,4.692c-0.785,1.125 0.301,3.219 -0.436,4.275c-0.822,1.179 -0.328,3.854 -0.328,5.319c0,1.014 -0.436,1.931 -0.436,3.128c0,0.174 0,-0.348 0,-0.521c0,-0.279 0,0.556 0,0.834l0,1.355c0,1.268 0.416,3.292 0,4.484c-2.094,6.003 -2.728,11.963 -2.728,19.5l0,4.901c0,0.171 -0.109,1.512 0,1.564c0.14,0.067 2.394,1.239 2.51,1.46c0.221,0.423 4.265,-0.019 4.473,-0.417c0.658,-1.257 0.767,-2.299 1.418,-3.545c0.399,-0.762 -0.077,-2.428 0.546,-3.024c0.835,-0.798 2.038,-1.849 2.4,-3.233c0.402,-1.537 -0.462,-5.594 0.437,-6.882c0.529,-0.758 1.383,-1.465 1.745,-2.503c0.728,-2.087 -0.35,-4.291 0.219,-6.465c0.441,-1.688 0.982,-2.712 1.854,-3.963c0.299,-0.427 0,-2.07 0,-2.607c0,-0.651 0.296,-0.758 0.546,-1.355c0.672,-1.607 -0.798,-4.279 0.218,-5.735c0.758,-1.087 0,-5.207 0,-6.57c0,-2.737 0.978,-3.226 2.291,-5.11c0.649,-0.93 -0.01,-2.388 0.764,-3.128c0.54,-0.516 -0.499,-2.338 0.109,-2.92c0.954,-0.911 1.416,-1.558 2.073,-2.815c0.422,-0.807 -0.422,-2.218 0,-3.024c0.91,-1.74 2.814,-3.23 3.819,-5.631c1.115,-2.664 -0.598,-5.4 1.091,-7.821c0.386,-0.554 -0.386,-1.845 0,-2.398c1.581,-2.267 3.772,-4.58 4.91,-7.3c1.696,-4.052 1.806,-7.995 3.164,-11.888c1.321,-3.788 3.365,-5.373 4.582,-8.863c0.252,-0.722 -0.219,-1.666 0,-2.399c0.982,-3.282 0.763,-6.777 2.292,-9.697c1.431,-2.737 3.085,-4.527 4.8,-6.987c0.92,-1.318 2.854,-1.745 3.819,-3.128c0.574,-0.824 -0.4,-2.225 0.327,-2.92c0.774,-0.74 1.817,-2.049 2.619,-2.816c0.936,-0.895 2.25,-0.671 3.164,-1.981c1.758,-2.521 5.224,-2.581 6.655,-5.318c0.185,-0.354 2.347,-1.719 1.309,-2.711c-0.181,-0.174 -1.566,0 -1.854,0c-3.025,0 -3.576,0.748 -5.674,2.085c-0.15,0.096 -1.936,0.259 -1.964,0.313c-0.699,1.336 -3.621,1.897 -4.691,2.92c-0.508,0.485 -1.857,-0.242 -2.401,0.104c-1.748,1.114 -3.968,3.233 -6.764,3.233" style="fill:#f00;"/><path d="M179.19,152.996c-2.433,0.438 -9.338,13.994 -18.625,14.919c-2.768,0.276 -63.059,20.731 -65.738,21.626c-0.47,0.157 -4.29,2.12 -4.899,2.167c-3.321,0.257 -4.204,1.773 -6.76,2.851c-1.302,0.548 -2.66,0.595 -3.923,1.256c-0.394,0.206 -0.758,0.826 -1.14,0.987c-2.86,1.206 -5.607,3.278 -8.515,4.097c-1.698,0.479 -2.81,1.805 -4.714,1.952c-0.923,0.072 -2.169,1.213 -3.009,1.45c-0.837,0.236 -2.505,2.207 -2.943,2.29c-1.437,0.274 -2.641,1.884 -4.019,2.057c-1.881,0.236 -3.381,1.167 -5.216,1.621c-3.921,0.969 -8.213,3.824 -12.56,3.088c-2.81,-0.475 -5.465,2.865 -7.594,2.334c-0.502,-0.125 -1.192,-0.923 -1.578,-1.253c-2.397,-2.053 -3.657,-2.829 -3.902,-5.992c-0.07,-0.909 0.806,-1.853 1.067,-2.621c0.747,-2.199 4.019,-4.43 5.902,-5.059c0.922,-0.308 2.305,-0.294 3.154,-0.931c1.465,-1.101 3.214,-2.586 4.722,-3.222c0.487,-0.206 0.871,-1.13 1.317,-1.425c2.006,-1.326 4.436,-2.462 6.801,-3.7c1.564,-0.819 3.092,-2.117 4.771,-2.591c0.793,-0.223 1.628,-1.338 2.409,-1.667c2.318,-0.978 5.282,-2.118 7.278,-3.684c0.758,-0.595 1.917,-1.616 2.862,-1.968c2.144,-0.796 4.371,-1.694 6.43,-2.349c1.843,-0.586 3.59,-2.336 5.256,-3.157c3.59,-1.769 7.664,-3.003 11.54,-3.962c5.642,-1.395 10.76,-4.799 15.98,-6.738c1.994,-0.741 5.487,-1.723 7.545,-1.589c0.83,0.053 2.882,0.578 3.665,0.192c3.628,-1.788 7.265,-1.711 11.095,-4.245c1.44,-0.952 3.873,-2.076 5.475,-2.381c0.807,-0.153 1.531,-0.459 2.329,-0.656c23.423,-5.785 38.776,-21.071 45.913,-25.876" style="fill:#f00;"/><path d="M271.455,273.629c-4.24,8.481 -10.873,16.314 -14.126,25.226c-0.775,2.123 -1.666,4.141 -2.422,6.256c-0.103,0.29 -0.492,2.22 0,2.22" style="fill:none;"/><path d="M271.153,268.181c-3.771,11.31 -10.091,22.748 -10.091,35.114" style="fill:none;"/><path d="M28.252,213.757l-4.598,-3.937l-3.616,4.223l4.598,3.937l3.616,-4.223Z"/><path d="M33.239,216.438l-4.597,-3.936l-3.616,4.223l4.597,3.937l3.616,-4.224Z"/><path d="M25.499,209.083l-4.597,-3.937l-3.616,4.224l4.597,3.936l3.616,-4.223Z"/><path d="M38.945,214.106l-4.598,-3.937l-3.616,4.223l4.598,3.937l3.616,-4.223Z"/><path d="M28.214,204.984l-4.598,-3.936l-3.616,4.223l4.598,3.937l3.616,-4.224Z"/><path d="M32.811,201.703l-4.597,-3.937l-3.616,4.224l4.597,3.936l3.616,-4.223Z"/><path d="M37.388,198.413l-4.598,-3.936l-3.616,4.223l4.598,3.937l3.616,-4.224Z"/><path d="M41.997,195.152l-4.598,-3.937l-3.616,4.223l4.598,3.937l3.616,-4.223Z"/><path d="M46.704,191.974l-4.598,-3.937l-3.616,4.223l4.598,3.937l3.616,-4.223Z"/><path d="M52.384,189.516l-4.598,-3.937l-3.616,4.223l4.598,3.937l3.616,-4.223Z"/><path d="M57.54,186.609l-4.598,-3.937l-3.616,4.224l4.598,3.936l3.616,-4.223Z"/><path d="M63.15,184.034l-4.598,-3.936l-3.616,4.223l4.598,3.937l3.616,-4.224Z"/><path d="M68.433,181.576l-4.598,-3.936l-3.616,4.223l4.598,3.937l3.616,-4.224Z"/><path d="M73.599,178.791l-4.598,-3.936l-3.616,4.223l4.598,3.937l3.616,-4.224Z"/><path d="M78.802,176.095l-4.598,-3.937l-3.616,4.224l4.598,3.936l3.616,-4.223Z"/><path d="M84.136,173.511l-4.598,-3.937l-3.616,4.223l4.598,3.937l3.616,-4.223Z"/><path d="M90.163,171.576l-4.598,-3.936l-3.616,4.223l4.598,3.937l3.616,-4.224Z"/><path d="M95.778,169.46l-4.598,-3.937l-3.616,4.223l4.598,3.937l3.616,-4.223Z"/><path d="M101.294,166.862l-4.598,-3.937l-3.616,4.223l4.598,3.937l3.616,-4.223Z"/><path d="M107.536,165.338l-4.598,-3.936l-3.616,4.223l4.598,3.937l3.616,-4.224Z"/><path d="M114.442,164.1l-4.598,-3.937l-3.616,4.224l4.598,3.936l3.616,-4.223Z"/><path d="M120.712,162.544l-4.598,-3.936l-3.616,4.223l4.598,3.937l3.616,-4.224Z"/><path d="M126.795,160.544l-4.598,-3.936l-3.616,4.223l4.598,3.937l3.616,-4.224Z"/><path d="M133.041,158.685l-4.598,-3.937l-3.616,4.223l4.598,3.937l3.616,-4.223Z"/><path d="M138.927,156.516l-4.598,-3.936l-3.616,4.223l4.598,3.937l3.616,-4.224Z"/><path d="M138.927,156.516l-4.598,-3.936l-3.616,4.223l4.598,3.937l3.616,-4.224Z"/><path d="M145.74,154.857l-4.598,-3.936l-3.616,4.223l4.598,3.937l3.616,-4.224Z"/><path d="M151.654,152.656l-4.598,-3.936l-3.616,4.223l4.598,3.937l3.616,-4.224Z"/><path d="M157.489,150.614l-4.598,-3.936l-3.616,4.223l4.598,3.937l3.616,-4.224Z"/><path d="M162.991,148.231l-4.598,-3.937l-3.616,4.224l4.598,3.936l3.616,-4.223Z"/><path d="M166.431,144.082l-4.598,-3.937l-3.616,4.223l4.598,3.937l3.616,-4.223Z"/><path d="M170.151,140.002l-4.598,-3.937l-3.616,4.223l4.598,3.937l3.616,-4.223Z"/><path d="M173.819,136.049l-4.598,-3.937l-3.616,4.223l4.598,3.937l3.616,-4.223Z"/><path d="M177.619,131.81l-4.598,-3.937l-3.616,4.223l4.598,3.937l3.616,-4.223Z"/><path d="M182.822,129.511l-4.598,-3.937l-3.616,4.224l4.598,3.936l3.616,-4.223Z"/><path d="M184.731,132.054l-4.598,-3.937l-3.616,4.223l4.598,3.937l3.616,-4.223Z"/><path d="M184.411,136.604l-4.598,-3.937l-3.616,4.224l4.598,3.936l3.616,-4.223Z"/><path d="M183.483,141.201l-4.598,-3.937l-3.616,4.224l4.598,3.936l3.616,-4.223Z"/><path d="M184.028,146.265l-4.598,-3.937l-3.616,4.224l4.598,3.937l3.616,-4.224Z"/><path d="M182.582,151.667l-4.598,-3.937l-3.616,4.224l4.598,3.936l3.616,-4.223Z"/><path d="M180.012,156.391l-4.598,-3.936l-3.616,4.223l4.598,3.937l3.616,-4.224Z"/><path d="M176.404,160.34l-4.598,-3.937l-3.616,4.223l4.598,3.937l3.616,-4.223Z"/><path d="M172.095,163.915l-4.598,-3.937l-3.616,4.223l4.598,3.937l3.616,-4.223Z"/><path d="M167.219,167.289l-4.598,-3.937l-3.616,4.224l4.598,3.936l3.616,-4.223Z"/><path d="M161.633,169.77l-4.598,-3.936l-3.616,4.223l4.598,3.937l3.616,-4.224Z"/><path d="M155.718,171.971l-4.598,-3.936l-3.616,4.223l4.598,3.937l3.616,-4.224Z"/><path d="M148.953,173.443l-4.598,-3.936l-3.616,4.223l4.598,3.937l3.616,-4.224Z"/><path d="M142.622,175.401l-4.598,-3.936l-3.616,4.223l4.598,3.937l3.616,-4.224Z"/><path d="M135.964,177.079l-4.598,-3.937l-3.616,4.224l4.598,3.936l3.616,-4.223Z"/><path d="M129.961,179.318l-4.598,-3.937l-3.616,4.223l4.598,3.937l3.616,-4.223Z"/><path d="M123.546,180.976l-4.598,-3.936l-3.616,4.223l4.598,3.937l3.616,-4.224Z"/><path d="M117.459,182.916l-4.598,-3.937l-3.616,4.223l4.598,3.937l3.616,-4.223Z"/><path d="M111.213,184.775l-4.598,-3.936l-3.616,4.223l4.598,3.937l3.616,-4.224Z"/><path d="M104.976,186.757l-4.598,-3.937l-3.616,4.223l4.598,3.937l3.616,-4.223Z"/><path d="M98.898,188.818l-4.598,-3.937l-3.616,4.223l4.598,3.937l3.616,-4.223Z"/><path d="M93.105,191.009l-4.598,-3.937l-3.616,4.224l4.598,3.936l3.616,-4.223Z"/><path d="M87.065,193.159l-4.598,-3.937l-3.616,4.223l4.598,3.937l3.616,-4.223Z"/><path d="M81.787,196.075l-4.598,-3.937l-3.616,4.223l4.598,3.937l3.616,-4.223Z"/><path d="M76.64,199.103l-4.598,-3.937l-3.616,4.224l4.598,3.936l3.616,-4.223Z"/><path d="M70.796,201.421l-4.598,-3.937l-3.616,4.223l4.598,3.937l3.616,-4.223Z"/><path d="M65.691,204.201l-4.598,-3.936l-3.616,4.223l4.598,3.937l3.616,-4.224Z"/><path d="M60.614,206.949l-4.598,-3.937l-3.616,4.223l4.598,3.937l3.616,-4.223Z"/><path d="M54.999,209.463l-4.597,-3.937l-3.616,4.224l4.597,3.936l3.616,-4.223Z"/><path d="M49.464,211.818l-4.598,-3.937l-3.616,4.224l4.598,3.936l3.616,-4.223Z"/><path d="M42.829,213.402l-4.597,-3.936l-3.616,4.223l4.597,3.937l3.616,-4.224Z"/><path d="M204.205,361.43l4.598,3.937l-3.616,4.223l-4.598,-3.936l3.616,-4.224Z"/><path d="M202.325,356.047l4.598,3.937l-3.616,4.223l-4.598,-3.937l3.616,-4.223Z"/><path d="M206.957,367.032l4.598,3.937l-3.616,4.223l-4.598,-3.937l3.616,-4.223Z"/><path d="M210.991,370.75l4.598,3.937l-3.616,4.223l-4.598,-3.936l3.616,-4.224Z"/><path d="M213.858,365.855l4.598,3.937l-3.616,4.223l-4.598,-3.937l3.616,-4.223Z"/><path d="M212.121,359.874l4.598,3.937l-3.616,4.223l-4.598,-3.936l3.616,-4.224Z"/><path d="M211.005,353.565l4.598,3.937l-3.616,4.223l-4.598,-3.936l3.616,-4.224Z"/><path d="M211.27,346.451l4.597,3.937l-3.616,4.223l-4.597,-3.937l3.616,-4.223Z"/><path d="M212.147,340.013l4.598,3.937l-3.616,4.223l-4.598,-3.937l3.616,-4.223Z"/><path d="M213.564,333.773l4.598,3.937l-3.616,4.223l-4.598,-3.937l3.616,-4.223Z"/><path d="M215.294,328.008l4.598,3.936l-3.616,4.224l-4.598,-3.937l3.616,-4.223Z"/><path d="M216.696,321.962l4.597,3.937l-3.616,4.223l-4.597,-3.937l3.616,-4.223Z"/><path d="M217.009,315.486l4.598,3.937l-3.616,4.223l-4.598,-3.937l3.616,-4.223Z"/><path d="M217.137,308.709l4.597,3.937l-3.616,4.223l-4.597,-3.937l3.616,-4.223Z"/><path d="M218.268,302.195l4.598,3.937l-3.616,4.223l-4.598,-3.937l3.616,-4.223Z"/><path d="M220.146,296.444l4.598,3.937l-3.616,4.223l-4.598,-3.937l3.616,-4.223Z"/><path d="M222.868,291.453l4.598,3.937l-3.616,4.223l-4.598,-3.937l3.616,-4.223Z"/><path d="M224.919,286.218l4.598,3.937l-3.616,4.223l-4.598,-3.936l3.616,-4.224Z"/><path d="M226.281,280.252l4.598,3.937l-3.616,4.223l-4.598,-3.936l3.616,-4.224Z"/><path d="M227.533,273.974l4.597,3.937l-3.616,4.223l-4.597,-3.937l3.616,-4.223Z"/><path d="M229.676,268.488l4.598,3.936l-3.616,4.224l-4.598,-3.937l3.616,-4.223Z"/><path d="M232.26,263.227l4.598,3.937l-3.616,4.223l-4.598,-3.937l3.616,-4.223Z"/><path d="M234.696,258.039l4.598,3.937l-3.616,4.223l-4.598,-3.937l3.616,-4.223Z"/><path d="M236.822,252.783l4.598,3.937l-3.616,4.223l-4.598,-3.936l3.616,-4.224Z"/><path d="M238.701,247.109l4.598,3.936l-3.616,4.224l-4.598,-3.937l3.616,-4.223Z"/><path d="M239.963,240.962l4.598,3.937l-3.616,4.223l-4.598,-3.937l3.616,-4.223Z"/><path d="M242.482,235.788l4.598,3.937l-3.616,4.223l-4.598,-3.937l3.616,-4.223Z"/><path d="M245.107,230.733l4.598,3.937l-3.616,4.223l-4.598,-3.937l3.616,-4.223Z"/><path d="M248.017,225.998l4.598,3.936l-3.616,4.224l-4.598,-3.937l3.616,-4.223Z"/><path d="M251.773,222.053l4.598,3.937l-3.616,4.223l-4.598,-3.937l3.616,-4.223Z"/><path d="M255.952,218.763l4.598,3.937l-3.616,4.223l-4.598,-3.936l3.616,-4.224Z"/><path d="M260.581,215.5l4.598,3.937l-3.616,4.223l-4.598,-3.937l3.616,-4.223Z"/><path d="M263.66,210.777l4.598,3.937l-3.616,4.223l-4.598,-3.937l3.616,-4.223Z"/><path d="M265.616,205.101l4.598,3.937l-3.616,4.223l-4.598,-3.936l3.616,-4.224Z"/><path d="M261.222,204.3l4.598,3.937l-3.616,4.223l-4.598,-3.937l3.616,-4.223Z"/><path d="M255.516,206.556l4.598,3.937l-3.616,4.223l-4.598,-3.936l3.616,-4.224Z"/><path d="M250.249,208.498l4.598,3.937l-3.616,4.223l-4.598,-3.937l3.616,-4.223Z"/><path d="M245.113,209.492l4.598,3.937l-3.616,4.223l-4.598,-3.936l3.616,-4.224Z"/><path d="M240.359,212.725l4.598,3.936l-3.616,4.224l-4.598,-3.937l3.616,-4.223Z"/><path d="M235.356,215.762l4.598,3.937l-3.616,4.223l-4.598,-3.937l3.616,-4.223Z"/><path d="M231.442,219.515l4.598,3.937l-3.616,4.223l-4.598,-3.936l3.616,-4.224Z"/><path d="M228.273,224.133l4.598,3.937l-3.616,4.223l-4.598,-3.937l3.616,-4.223Z"/><path d="M225.576,228.908l4.597,3.937l-3.616,4.223l-4.597,-3.937l3.616,-4.223Z"/><path d="M223.018,233.851l4.598,3.937l-3.616,4.223l-4.598,-3.937l3.616,-4.223Z"/><path d="M220.464,238.844l4.598,3.937l-3.616,4.223l-4.598,-3.937l3.616,-4.223Z"/><path d="M212.628,260.702l4.598,3.936l-3.616,4.224l-4.598,-3.937l3.616,-4.223Z"/><path d="M211.401,266.764l4.597,3.937l-3.616,4.223l-4.597,-3.937l3.616,-4.223Z"/><path d="M209.933,272.555l4.598,3.937l-3.616,4.223l-4.598,-3.937l3.616,-4.223Z"/><path d="M208.851,278.647l4.597,3.937l-3.616,4.223l-4.597,-3.937l3.616,-4.223Z"/><path d="M207.463,284.742l4.598,3.937l-3.616,4.223l-4.598,-3.936l3.616,-4.224Z"/><path d="M206.281,290.939l4.598,3.937l-3.616,4.223l-4.598,-3.937l3.616,-4.223Z"/><path d="M204.968,297.003l4.597,3.937l-3.616,4.223l-4.597,-3.937l3.616,-4.223Z"/><path d="M203.382,303.042l4.598,3.937l-3.616,4.223l-4.598,-3.936l3.616,-4.224Z"/><path d="M202.84,309.796l4.598,3.937l-3.616,4.223l-4.598,-3.937l3.616,-4.223Z"/><path d="M201.75,316.515l4.598,3.937l-3.616,4.223l-4.598,-3.936l3.616,-4.224Z"/><path d="M200.351,328.977l4.597,3.936l-3.615,4.224l-4.598,-3.937l3.616,-4.223Z"/><path d="M201.015,323.141l4.597,3.937l-3.615,4.223l-4.598,-3.937l3.616,-4.223Z"/><path d="M214.364,255.216l4.598,3.937l-3.616,4.223l-4.598,-3.936l3.616,-4.224Z"/><path d="M215.997,249.53l4.598,3.937l-3.616,4.223l-4.598,-3.937l3.616,-4.223Z"/><path d="M218.254,244.121l4.598,3.937l-3.616,4.223l-4.598,-3.936l3.616,-4.224Z"/><path d="M200.316,350.24l4.598,3.937l-3.616,4.223l-4.598,-3.937l3.616,-4.223Z"/><path d="M199.745,342.875l4.598,3.936l-3.616,4.224l-4.598,-3.937l3.616,-4.223Z"/><path d="M199.838,335.784l4.598,3.937l-3.616,4.223l-4.598,-3.937l3.616,-4.223Z"/><path d="M216.163,146.018l-4.598,-3.937l-3.616,4.223l4.598,3.937l3.616,-4.223Z"/><path d="M218.177,141.624l-4.598,-3.937l-3.616,4.223l4.598,3.937l3.616,-4.223Z"/><path d="M221.147,137.413l-4.598,-3.937l-3.616,4.223l4.598,3.937l3.616,-4.223Z"/><path d="M221.885,134.231l-4.598,-3.937l-3.616,4.223l4.598,3.937l3.616,-4.223Z"/><path d="M217.786,132.707l-4.598,-3.936l-3.616,4.223l4.598,3.937l3.616,-4.224Z"/><path d="M213.039,131.663l-4.598,-3.937l-3.616,4.223l4.598,3.937l3.616,-4.223Z"/><path d="M207.265,131.168l-4.598,-3.937l-3.616,4.224l4.598,3.936l3.616,-4.223Z"/><path d="M201.824,130.006l-4.598,-3.937l-3.616,4.223l4.598,3.937l3.616,-4.223Z"/><path d="M195.918,128.922l-4.598,-3.937l-3.616,4.224l4.598,3.936l3.616,-4.223Z"/><path d="M212.595,158.537l-4.598,-3.937l-3.616,4.223l4.598,3.937l3.616,-4.223Z"/><path d="M207.543,161.283l-4.598,-3.937l-3.616,4.223l4.598,3.937l3.616,-4.223Z"/><path d="M202.778,162.765l-4.598,-3.937l-3.616,4.223l4.598,3.937l3.616,-4.223Z"/><path d="M214.675,154.994l-4.598,-3.937l-3.616,4.223l4.598,3.937l3.616,-4.223Z"/><path d="M215.229,150.542l-4.598,-3.937l-3.616,4.223l4.598,3.937l3.616,-4.223Z"/><path d="M188.113,150.845l-4.598,-3.937l-3.616,4.223l4.598,3.937l3.616,-4.223Z"/><path d="M193.24,152.374l-4.598,-3.937l-3.616,4.223l4.598,3.937l3.616,-4.223Z"/><path d="M196.909,157.184l-4.598,-3.937l-3.616,4.223l4.598,3.937l3.616,-4.223Z"/><path d="M199.183,161.673l-4.598,-3.936l-3.616,4.223l4.598,3.937l3.616,-4.224Z"/><path d="M326.664,119.333l-4.598,-3.937l-3.616,4.223l4.598,3.937l3.616,-4.223Z"/><path d="M330.25,115.067l-4.598,-3.937l-3.616,4.223l4.598,3.937l3.616,-4.223Z"/><path d="M333.858,110.992l-4.597,-3.937l-3.616,4.223l4.597,3.937l3.616,-4.223Z"/><path d="M323.163,123.503l-4.598,-3.937l-3.616,4.223l4.598,3.937l3.616,-4.223Z"/><path d="M319.564,127.706l-4.598,-3.937l-3.616,4.223l4.598,3.937l3.616,-4.223Z"/><path d="M315.284,131.39l-4.598,-3.936l-3.616,4.223l4.598,3.937l3.616,-4.224Z"/><path d="M336.119,111.619l-4.598,-3.937l-3.616,4.224l4.598,3.937l3.616,-4.224Z"/><path d="M334.998,116.486l-4.598,-3.937l-3.616,4.224l4.598,3.936l3.616,-4.223Z"/><path d="M333.881,120.497l-4.598,-3.937l-3.616,4.223l4.598,3.937l3.616,-4.223Z"/><path d="M332.504,125.276l-4.598,-3.936l-3.616,4.223l4.598,3.937l3.616,-4.224Z"/><path d="M330.548,130.422l-4.598,-3.937l-3.616,4.224l4.598,3.936l3.616,-4.223Z"/><path d="M327.626,135.072l-4.598,-3.937l-3.616,4.223l4.598,3.937l3.616,-4.223Z"/><path d="M324.415,139.673l-4.598,-3.937l-3.616,4.223l4.598,3.937l3.616,-4.223Z"/><path d="M321.423,144.328l-4.598,-3.937l-3.616,4.223l4.598,3.937l3.616,-4.223Z"/><path d="M317.857,148.492l-4.598,-3.937l-3.616,4.224l4.598,3.936l3.616,-4.223Z"/><path d="M313.98,152.324l-4.598,-3.937l-3.616,4.224l4.598,3.936l3.616,-4.223Z"/><path d="M309.727,155.9l-4.598,-3.937l-3.616,4.223l4.598,3.937l3.616,-4.223Z"/><path d="M305.468,159.405l-4.598,-3.937l-3.616,4.223l4.598,3.937l3.616,-4.223Z"/><path d="M299.812,161.448l-4.598,-3.937l-3.616,4.223l4.598,3.937l3.616,-4.223Z"/><path d="M294.865,163.9l-4.598,-3.937l-3.616,4.224l4.598,3.936l3.616,-4.223Z"/><path d="M289.127,165.807l-4.598,-3.937l-3.616,4.224l4.598,3.936l3.616,-4.223Z"/><path d="M282.99,167.174l-4.598,-3.936l-3.616,4.223l4.598,3.937l3.616,-4.224Z"/><path d="M277.224,167.799l-4.598,-3.936l-3.616,4.223l4.598,3.937l3.616,-4.224Z"/><path d="M270.683,169.02l-4.598,-3.937l-3.616,4.223l4.598,3.937l3.616,-4.223Z"/><path d="M268.701,165.071l-4.598,-3.937l-3.616,4.223l4.598,3.937l3.616,-4.223Z"/><path d="M267.846,159.108l-4.598,-3.936l-3.616,4.223l4.598,3.937l3.616,-4.224Z"/><path d="M268.225,152.943l-4.598,-3.936l-3.616,4.223l4.598,3.937l3.616,-4.224Z"/><path d="M268.795,147.869l-4.598,-3.936l-3.616,4.223l4.598,3.937l3.616,-4.224Z"/><path d="M309.727,155.9l-4.598,-3.937l-3.616,4.223l4.598,3.937l3.616,-4.223Z"/><path d="M310.736,134.846l-4.598,-3.936l-3.616,4.223l4.598,3.937l3.616,-4.224Z"/><path d="M305.336,137.441l-4.598,-3.937l-3.616,4.223l4.598,3.937l3.616,-4.223Z"/><path d="M300.073,139.953l-4.598,-3.937l-3.616,4.223l4.598,3.937l3.616,-4.223Z"/><path d="M294.504,142.204l-4.598,-3.937l-3.616,4.223l4.598,3.937l3.616,-4.223Z"/><path d="M288.908,144.1l-4.598,-3.937l-3.616,4.223l4.598,3.937l3.616,-4.223Z"/><path d="M283.202,145.505l-4.598,-3.937l-3.616,4.223l4.598,3.937l3.616,-4.223Z"/><path d="M277.256,146.572l-4.598,-3.937l-3.616,4.223l4.598,3.937l3.616,-4.223Z"/><path d="M272.34,146.667l-4.598,-3.937l-3.616,4.224l4.598,3.937l3.616,-4.224Z"/><path d="M337.515,106.624l-4.597,-3.937l-3.616,4.223l4.597,3.937l3.616,-4.223Z"/><path d="M188.411,144.743l-4.598,-3.937l-3.616,4.223l4.598,3.937l3.616,-4.223Z"/><path d="M189.22,139.715l-4.598,-3.937l-3.616,4.223l4.598,3.937l3.616,-4.223Z"/><path d="M190.612,133.914l-4.598,-3.937l-3.616,4.223l4.598,3.937l3.616,-4.223Z"/><path d="M189.967,128.356l-4.598,-3.937l-3.616,4.223l4.598,3.937l3.616,-4.223Z"/><path d="M258.828,59.357l-4.598,-3.937l-3.616,4.224l4.598,3.936l3.616,-4.223Z"/><path d="M257.995,62.418l-4.598,-3.937l-3.616,4.224l4.598,3.936l3.616,-4.223Z"/><path d="M256.731,66.369l-4.598,-3.937l-3.616,4.223l4.598,3.937l3.616,-4.223Z"/><path d="M255.528,70.635l-4.598,-3.936l-3.616,4.223l4.598,3.937l3.616,-4.224Z"/><path d="M253.877,75.579l-4.597,-3.937l-3.616,4.224l4.597,3.936l3.616,-4.223Z"/><path d="M252.292,79.983l-4.598,-3.937l-3.616,4.223l4.598,3.937l3.616,-4.223Z"/><path d="M250.942,84.19l-4.598,-3.937l-3.616,4.223l4.598,3.937l3.616,-4.223Z"/><path d="M249.285,88.598l-4.597,-3.936l-3.616,4.223l4.597,3.937l3.616,-4.224Z"/><path d="M247.788,93.673l-4.598,-3.937l-3.616,4.223l4.598,3.937l3.616,-4.223Z"/><path d="M244.95,98.483l-4.598,-3.937l-3.616,4.223l4.598,3.937l3.616,-4.223Z"/><path d="M242.625,103.157l-4.598,-3.936l-3.616,4.223l4.598,3.937l3.616,-4.224Z"/><path d="M240.7,108.396l-4.598,-3.937l-3.616,4.223l4.598,3.937l3.616,-4.223Z"/><path d="M238.258,113.103l-4.598,-3.936l-3.616,4.223l4.598,3.937l3.616,-4.224Z"/><path d="M236.177,118.473l-4.598,-3.937l-3.616,4.223l4.598,3.937l3.616,-4.223Z"/><path d="M233.878,123.479l-4.598,-3.937l-3.616,4.223l4.598,3.937l3.616,-4.223Z"/><path d="M231.087,127.976l-4.598,-3.937l-3.616,4.223l4.598,3.937l3.616,-4.223Z"/><path d="M228.598,132.996l-4.598,-3.937l-3.616,4.223l4.598,3.937l3.616,-4.223Z"/><path d="M226.361,138.496l-4.598,-3.936l-3.616,4.223l4.598,3.937l3.616,-4.224Z"/><path d="M223.843,143.757l-4.598,-3.937l-3.616,4.223l4.598,3.937l3.616,-4.223Z"/><path d="M221.147,148.556l-4.598,-3.937l-3.616,4.223l4.598,3.937l3.616,-4.223Z"/><path d="M220.11,154.51l-4.598,-3.937l-3.616,4.223l4.598,3.937l3.616,-4.223Z"/><path d="M219.083,159.37l-4.598,-3.937l-3.616,4.223l4.598,3.937l3.616,-4.223Z"/><path d="M221.887,164.551l-4.598,-3.937l-3.616,4.223l4.598,3.937l3.616,-4.223Z"/><path d="M226.841,169.72l-5.897,-5.049l-3.616,4.223l5.897,5.049l3.616,-4.223Z"/><path d="M230.867,172.726l-4.598,-3.937l-3.616,4.223l4.598,3.937l3.616,-4.223Z"/><path d="M236.153,174.956l-4.598,-3.937l-3.616,4.224l4.598,3.936l3.616,-4.223Z"/><path d="M238.68,180.563l-4.598,-3.937l-3.616,4.223l4.598,3.937l3.616,-4.223Z"/><path d="M236.875,185.507l-4.598,-3.937l-3.616,4.223l4.598,3.937l3.616,-4.223Z"/><path d="M234.576,190.822l-4.598,-3.937l-3.616,4.223l4.598,3.937l3.616,-4.223Z"/><path d="M232.847,195.831l-4.598,-3.937l-3.616,4.223l4.598,3.937l3.616,-4.223Z"/><path d="M237.523,199.393l-4.598,-3.937l-3.616,4.223l4.598,3.937l3.616,-4.223Z"/><path d="M241.962,203.282l-4.598,-3.937l-3.616,4.223l4.598,3.937l3.616,-4.223Z"/><path d="M244.151,209.747l-4.598,-3.937l-3.616,4.224l4.598,3.936l3.616,-4.223Z"/><path d="M249.566,208.115l-4.598,-3.937l-3.616,4.223l4.598,3.937l3.616,-4.223Z"/><path d="M256.152,207.177l-4.598,-3.937l-3.616,4.223l4.598,3.937l3.616,-4.223Z"/><path d="M261.868,204.831l-4.598,-3.936l-3.616,4.223l4.598,3.937l3.616,-4.224Z"/><path d="M268.494,203.177l-4.598,-3.937l-3.616,4.223l4.598,3.937l3.616,-4.223Z"/><path d="M268.277,198.223l-4.598,-3.937l-3.616,4.224l4.598,3.936l3.616,-4.223Z"/><path d="M267.299,192.353l-4.598,-3.936l-3.616,4.223l4.598,3.937l3.616,-4.224Z"/><path d="M266.241,186.371l-4.598,-3.937l-3.616,4.224l4.598,3.936l3.616,-4.223Z"/><path d="M265.121,180.203l-4.598,-3.937l-3.616,4.224l4.598,3.936l3.616,-4.223Z"/><path d="M264.682,174.221l-4.598,-3.937l-3.616,4.223l4.598,3.937l3.616,-4.223Z"/><path d="M263.427,168.158l-4.598,-3.936l-3.616,4.223l4.598,3.937l3.616,-4.224Z"/><path d="M263.075,162.383l-4.598,-3.937l-3.616,4.223l4.598,3.937l3.616,-4.223Z"/><path d="M262.867,155.407l-4.597,-3.937l-3.616,4.224l4.597,3.936l3.616,-4.223Z"/><path d="M263.257,149.384l-4.598,-3.937l-3.616,4.223l4.598,3.937l3.616,-4.223Z"/><path d="M263.276,144.721l-4.598,-3.936l-3.616,4.223l4.598,3.937l3.616,-4.224Z"/><path d="M262.309,138.994l-4.597,-3.937l-3.616,4.223l4.597,3.937l3.616,-4.223Z"/><path d="M261.5,134.371l-4.598,-3.936l-3.616,4.223l4.598,3.937l3.616,-4.224Z"/><path d="M261.437,51.592l-4.598,-3.936l-3.616,4.223l4.598,3.937l3.616,-4.224Z"/><path d="M259.633,55.478l-4.598,-3.937l-3.616,4.223l4.598,3.937l3.616,-4.223Z"/><path d="M265.155,56.299l-4.598,-3.937l-3.616,4.223l4.598,3.937l3.616,-4.223Z"/><path d="M268.147,61.311l-4.598,-3.937l-3.616,4.223l4.598,3.937l3.616,-4.223Z"/><path d="M270.894,66.377l-4.598,-3.936l-3.616,4.223l4.598,3.937l3.616,-4.224Z"/><path d="M273.706,71.368l-4.598,-3.937l-3.616,4.223l4.598,3.937l3.616,-4.223Z"/><path d="M275.171,75.999l-4.598,-3.937l-3.616,4.223l4.598,3.937l3.616,-4.223Z"/><path d="M276.335,80.903l-4.598,-3.937l-3.616,4.223l4.598,3.937l3.616,-4.223Z"/><path d="M277.118,85.943l-4.598,-3.937l-3.616,4.224l4.598,3.936l3.616,-4.223Z"/><path d="M277.219,90.929l-4.598,-3.936l-3.616,4.223l4.598,3.937l3.616,-4.224Z"/><path d="M276.714,95.927l-4.597,-3.937l-3.616,4.223l4.597,3.937l3.616,-4.223Z"/><path d="M276.362,100.592l-4.598,-3.937l-3.616,4.223l4.598,3.937l3.616,-4.223Z"/><path d="M275.35,105.95l-4.597,-3.937l-3.616,4.223l4.597,3.937l3.616,-4.223Z"/><path d="M273.891,111.057l-4.598,-3.937l-3.616,4.223l4.598,3.937l3.616,-4.223Z"/><path d="M272.584,115.367l-4.598,-3.936l-3.616,4.223l4.598,3.937l3.616,-4.224Z"/><path d="M270.257,120.328l-4.598,-3.937l-3.616,4.223l4.598,3.937l3.616,-4.223Z"/><path d="M267.75,125.266l-4.598,-3.937l-3.616,4.224l4.598,3.936l3.616,-4.223Z"/><path d="M263.995,129.281l-4.598,-3.936l-3.616,4.223l4.598,3.937l3.616,-4.224Z"/><path d="M231.919,143.355l-3.937,4.598l4.223,3.616l3.937,-4.598l-4.223,-3.616Z" style="stroke:#000;stroke-width:0.64px;"/><path d="M236.11,141.096l-3.937,4.598l4.224,3.616l3.936,-4.598l-4.223,-3.616Z" style="stroke:#000;stroke-width:0.64px;"/><path d="M240.295,140.515l-3.937,4.598l4.223,3.616l3.937,-4.598l-4.223,-3.616Z" style="stroke:#000;stroke-width:0.64px;"/><path d="M245.19,142.481l-3.937,4.598l4.223,3.616l3.937,-4.598l-4.223,-3.616Z" style="stroke:#000;stroke-width:0.64px;"/><path d="M245.19,142.481l-3.937,4.598l4.223,3.616l3.937,-4.598l-4.223,-3.616Z" style="stroke:#000;stroke-width:0.64px;"/><path d="M252.632,150.958l-4.598,-3.937l-3.616,4.223l4.598,3.937l3.616,-4.223Z" style="stroke:#000;stroke-width:0.64px;"/><path d="M253.008,155.586l-4.598,-3.937l-3.616,4.224l4.598,3.936l3.616,-4.223Z" style="stroke:#000;stroke-width:0.64px;"/><path d="M250.912,159.926l-4.597,-3.936l-3.616,4.223l4.597,3.937l3.616,-4.224Z" style="stroke:#000;stroke-width:0.64px;"/><path d="M233.63,152.122l-4.598,-3.937l-3.616,4.223l4.598,3.937l3.616,-4.223Z" style="stroke:#000;stroke-width:0.64px;"/><path d="M233.704,156.825l-4.598,-3.937l-3.616,4.223l4.598,3.937l3.616,-4.223Z" style="stroke:#000;stroke-width:0.64px;"/><path d="M236.448,161.526l-4.598,-3.936l-3.616,4.223l4.598,3.937l3.616,-4.224Z" style="stroke:#000;stroke-width:0.64px;"/><path d="M182.261,163.033l-4.598,-3.937l-3.616,4.224l4.598,3.936l3.616,-4.223Z" style="stroke:#000;stroke-width:0.64px;"/><path d="M183.484,168.167l-4.598,-3.937l-3.616,4.223l4.598,3.937l3.616,-4.223Z" style="stroke:#000;stroke-width:0.64px;"/><path d="M185.788,173.829l-4.598,-3.937l-3.616,4.223l4.598,3.937l3.616,-4.223Z" style="stroke:#000;stroke-width:0.64px;"/><path d="M188.377,179.621l-4.598,-3.937l-3.616,4.223l4.598,3.937l3.616,-4.223Z" style="stroke:#000;stroke-width:0.64px;"/><path d="M191.47,184.426l-4.597,-3.936l-3.616,4.223l4.597,3.937l3.616,-4.224Z" style="stroke:#000;stroke-width:0.64px;"/><path d="M194.04,189.181l-4.598,-3.937l-3.616,4.223l4.598,3.937l3.616,-4.223Z" style="stroke:#000;stroke-width:0.64px;"/><path d="M198.083,193.607l-4.598,-3.937l-3.616,4.223l4.598,3.937l3.616,-4.223Z" style="stroke:#000;stroke-width:0.64px;"/><path d="M202.289,197.776l-4.598,-3.937l-3.616,4.223l4.598,3.937l3.616,-4.223Z" style="stroke:#000;stroke-width:0.64px;"/><path d="M207.112,201.224l-4.598,-3.937l-3.616,4.224l4.598,3.936l3.616,-4.223Z" style="stroke:#000;stroke-width:0.64px;"/><path d="M211.87,204.617l-4.598,-3.937l-3.616,4.223l4.598,3.937l3.616,-4.223Z" style="stroke:#000;stroke-width:0.64px;"/><path d="M217.094,207.728l-4.597,-3.937l-3.616,4.224l4.597,3.936l3.616,-4.223Z" style="stroke:#000;stroke-width:0.64px;"/><path d="M222.712,210.381l-4.598,-3.937l-3.616,4.224l4.598,3.936l3.616,-4.223Z" style="stroke:#000;stroke-width:0.64px;"/><path d="M227.581,213.245l-4.597,-3.937l-3.616,4.224l4.597,3.936l3.616,-4.223Z" style="stroke:#000;stroke-width:0.64px;"/><path d="M232.642,215.421l-4.598,-3.936l-3.616,4.223l4.598,3.937l3.616,-4.224Z" style="stroke:#000;stroke-width:0.64px;"/><path d="M236.088,214.91l-4.598,-3.937l-3.616,4.223l4.598,3.937l3.616,-4.223Z" style="stroke:#000;stroke-width:0.64px;"/><path d="M239.758,213.341l-4.598,-3.936l-3.616,4.223l4.598,3.937l3.616,-4.224Z" style="stroke:#000;stroke-width:0.64px;"/><path d="M235.188,209.598l-4.598,-3.937l-3.616,4.224l4.598,3.936l3.616,-4.223Z" style="stroke:#000;stroke-width:0.64px;"/><path d="M230.056,206.51l-4.598,-3.937l-3.616,4.223l4.598,3.937l3.616,-4.223Z" style="stroke:#000;stroke-width:0.64px;"/><path d="M225.009,203.324l-4.598,-3.937l-3.616,4.223l4.598,3.937l3.616,-4.223Z" style="stroke:#000;stroke-width:0.64px;"/><path d="M220.293,199.683l-4.598,-3.936l-3.616,4.223l4.598,3.937l3.616,-4.224Z" style="stroke:#000;stroke-width:0.64px;"/><path d="M216.953,196.426l-4.598,-3.937l-3.616,4.223l4.598,3.937l3.616,-4.223Z" style="stroke:#000;stroke-width:0.64px;"/><path d="M216.953,196.426l-4.598,-3.937l-3.616,4.223l4.598,3.937l3.616,-4.223Z" style="stroke:#000;stroke-width:0.64px;"/><path d="M212.676,192.14l-4.597,-3.937l-3.616,4.224l4.597,3.936l3.616,-4.223Z" style="stroke:#000;stroke-width:0.64px;"/><path d="M208.98,187.045l-4.598,-3.937l-3.616,4.223l4.598,3.937l3.616,-4.223Z" style="stroke:#000;stroke-width:0.64px;"/><path d="M204.591,183.288l-4.598,-3.937l-3.616,4.223l4.598,3.937l3.616,-4.223Z" style="stroke:#000;stroke-width:0.64px;"/><path d="M200.563,179.839l-4.598,-3.937l-3.616,4.223l4.598,3.937l3.616,-4.223Z" style="stroke:#000;stroke-width:0.64px;"/><path d="M196.296,175.277l-4.598,-3.937l-3.616,4.224l4.598,3.936l3.616,-4.223Z" style="stroke:#000;stroke-width:0.64px;"/><path d="M192.618,170.823l-4.598,-3.937l-3.616,4.223l4.598,3.937l3.616,-4.223Z" style="stroke:#000;stroke-width:0.64px;"/><path d="M189.801,166.424l-4.598,-3.937l-3.616,4.223l4.598,3.937l3.616,-4.223Z" style="stroke:#000;stroke-width:0.64px;"/><path d="M186.473,161.759l-4.597,-3.937l-3.616,4.223l4.597,3.937l3.616,-4.223Z" style="stroke:#000;stroke-width:0.64px;"/><path d="M184.714,158.776l-4.598,-3.936l-3.616,4.223l4.598,3.937l3.616,-4.224Z" style="stroke:#000;stroke-width:0.64px;"/><path d="M241.422,163.846l-4.598,-3.936l-3.616,4.223l4.598,3.937l3.616,-4.224Z" style="stroke:#000;stroke-width:0.64px;"/><path d="M245.967,163.94l-4.598,-3.937l-3.616,4.223l4.598,3.937l3.616,-4.223Z" style="stroke:#000;stroke-width:0.64px;"/><path d="M248.372,161.947l-4.598,-3.937l-3.616,4.223l4.598,3.937l3.616,-4.223Z" style="stroke:#000;stroke-width:0.64px;"/><path d="M180.801,164.463l0,4.059c0,0.31 -0.175,1.324 0,1.586c0.93,1.395 1.143,3.491 2.03,4.821c0.588,0.882 1.478,1.632 2.157,2.538c0.393,0.524 1.126,1.926 1.586,2.156c0.018,0.009 0.024,2.058 0.19,2.474c0.517,1.293 1.715,3.238 2.474,3.997c0.408,0.407 0.463,1.224 0.888,1.649c0.502,0.502 1.461,0.826 1.967,1.332c0.408,0.409 0.603,1.037 1.141,1.396c0.438,0.291 1.122,0.491 1.396,0.888c0.698,1.011 0.92,2.569 1.776,3.425c0.637,0.637 1.529,1.085 2.093,1.649c0.171,0.171 0.673,-0.049 0.698,0.191c0.049,0.462 -0.329,1.066 0,1.395c0.533,0.533 1.923,1.562 2.22,2.157c1.231,2.462 4.794,4.03 7.549,4.948c0.86,0.286 1.309,1.684 2.157,1.966c0.915,0.305 2.272,-0.359 3.172,0c1.325,0.53 2.6,1.311 3.996,1.776c1.229,0.41 2.132,2.399 3.172,2.918c0.453,0.227 1.587,0 2.093,0c0.644,0 2.873,0.362 3.362,-0.126c0.888,-0.888 -0.523,-3.452 -1.586,-3.807c-1.317,-0.439 -2.754,-1.384 -3.616,-3.108c-0.326,-0.653 -0.886,-2.061 -1.586,-2.41c-2.257,-1.129 -4.338,-2.455 -6.533,-3.553c-1.172,-0.585 -1.651,-2.791 -3.045,-2.791c-0.19,0 0,-0.38 0,-0.571c0,-0.308 -0.043,-0.677 -0.254,-0.888c-0.508,-0.508 -1.265,-1.168 -1.713,-1.839c-0.474,-0.711 -1.48,-1.037 -2.156,-1.713c-1.076,-1.075 -2.103,-2.166 -3.172,-3.235c-2.25,-2.25 -5.384,-4.715 -6.978,-7.105c-0.206,-0.31 -0.678,0.02 -0.888,-0.19c-0.781,-0.781 -1.566,-2.318 -2.093,-3.108c-0.889,-1.333 -3.176,-2.542 -4.314,-3.68c-0.908,-0.907 -1.598,-2.256 -1.966,-3.362c-0.253,-0.758 -1.073,-1.316 -1.332,-2.093c-0.347,-1.042 -0.741,-2.671 -1.586,-3.235c-0.67,-0.447 -3.22,0 -4.06,0"/><path d="M230.95,153.142c0,-0.124 0.11,-0.238 0.132,-0.36c0.067,-0.365 0.081,-0.758 0.208,-1.097c0.102,-0.272 0.04,-0.69 0.114,-0.984c0.127,-0.511 0.405,-1.093 0.643,-1.57c0.207,-0.415 0.366,-1.142 0.681,-1.457c0.921,-0.921 2.351,-1.405 3.652,-1.665c0.738,-0.148 1.599,-0.112 2.232,0.189c0.148,0.07 0.56,0.067 0.681,0.095c0.882,0.201 1.739,0.472 2.611,0.7c1.492,0.389 3.099,0.142 4.39,1.003c0.084,0.056 0.038,0.32 0.038,0.416l0,1.419c0,1.584 -0.133,3.103 -0.133,4.692c0,0.393 -0.132,0.74 -0.132,1.135c0,0.068 0.043,0.392 0,0.435c-0.87,0.87 -1.497,2.089 -2.441,2.876c-0.466,0.388 -0.972,0.761 -1.476,1.098c-0.247,0.165 -0.605,0.302 -0.813,0.51c-0.462,0.462 -1.153,0.933 -1.817,1.154c-0.193,0.065 -0.291,0.277 -0.548,0.341c-0.383,0.096 -0.821,-0.081 -1.173,-0.151c-0.724,-0.145 -1.359,-0.409 -2.006,-0.757c-0.298,-0.16 -0.706,-0.266 -0.965,-0.473c-0.205,-0.164 -0.515,-0.18 -0.738,-0.322c-0.431,-0.275 -0.803,-0.794 -1.135,-1.173c-0.356,-0.407 -0.837,-0.765 -1.078,-1.249c-0.275,-0.549 -0.287,-1.17 -0.454,-1.797c-0.277,-1.036 -0.473,-1.944 -0.473,-3.027c0,-0.887 -0.057,-1.815 -0.057,-2.668c0,-0.297 -0.133,-0.583 -0.133,-0.813c0,-0.111 -0.132,-0.394 -0.132,-0.322" style="stroke:#000;stroke-width:0.01px;"/></svg>